E.sfdir
StartChar: exclam
Encoding: 33 33 4
Width: 258
Flags: W
LayerCount: 2
Fore
SplineSet
180 418 m 1,0,-1
 152 162 l 1,1,-1
 102 162 l 1,2,-1
 78 416 l 1,3,-1
 78 584 l 1,4,-1
 180 584 l 1,5,-1
 180 418 l 1,0,-1
182 43 m 0,6,7
 182 21 182 21 167.5 5.5 c 128,-1,8
 153 -10 153 -10 131 -10 c 0,9,10
 108 -10 108 -10 93 5.5 c 128,-1,11
 78 21 78 21 78 43 c 0,12,13
 78 66 78 66 93 81 c 128,-1,14
 108 96 108 96 131 96 c 0,15,16
 153 96 153 96 167.5 81 c 128,-1,17
 182 66 182 66 182 43 c 0,6,7
EndSplineSet
EndChar
StartChar: quotedbl
Encoding: 34 34 5
Width: 763
Flags: W
LayerCount: 2
Fore
SplineSet
635 1000 m 1,0,-1
 606 600 l 1,1,-1
 473 600 l 1,2,-1
 442 1000 l 1,3,-1
 635 1000 l 1,0,-1
322 1000 m 1,4,-1
 291 600 l 1,5,-1
 161 600 l 1,6,-1
 130 1000 l 1,7,-1
 322 1000 l 1,4,-1
EndSplineSet
EndChar
StartChar: numbersign
Encoding: 35 35 6
Width: 575
Flags: W
LayerCount: 2
Fore
SplineSet
539 426 m 1,0,-1
 526 342 l 1,1,-1
 436 342 l 1,2,-1
 422 252 l 1,3,-1
 514 252 l 1,4,-1
 502 168 l 1,5,-1
 410 168 l 1,6,-1
 383 0 l 1,7,-1
 285 0 l 1,8,-1
 313 168 l 1,9,-1
 221 168 l 1,10,-1
 195 0 l 1,11,-1
 100 0 l 1,12,-1
 127 168 l 1,13,-1
 35 168 l 1,14,-1
 47 252 l 1,15,-1
 139 252 l 1,16,-1
 154 342 l 1,17,-1
 63 342 l 1,18,-1
 76 426 l 1,19,-1
 166 426 l 1,20,-1
 190 584 l 1,21,-1
 285 584 l 1,22,-1
 260 426 l 1,23,-1
 354 426 l 1,24,-1
 379 584 l 1,25,-1
 473 584 l 1,26,-1
 449 426 l 1,27,-1
 539 426 l 1,0,-1
340 342 m 1,28,-1
 248 342 l 1,29,-1
 236 252 l 1,30,-1
 328 252 l 1,31,-1
 340 342 l 1,28,-1
EndSplineSet
EndChar
StartChar: dollar
Encoding: 36 36 7
Width: 1007
VWidth: 1754
Flags: W
LayerCount: 2
Fore
SplineSet
907 291 m 0,0,1
 907 140 907 140 767 57 c 0,2,3
 681 7 681 7 585 -3 c 1,4,-1
 585 -178 l 1,5,-1
 405 -178 l 1,6,-1
 405 0 l 1,7,8
 232 29 232 29 100 182 c 1,9,-1
 244 295 l 1,10,11
 350 168 350 168 511 168 c 0,12,13
 605 168 605 168 667 205.5 c 128,-1,14
 729 243 729 243 729 298 c 0,15,16
 729 358 729 358 665 389 c 1,17,18
 593 418 593 418 546 428 c 1,19,-1
 499 442 l 1,20,-1
 455 452 l 1,21,-1
 405 466 l 1,22,23
 265 499 265 499 208 565 c 1,24,25
 146 632 146 632 146 733 c 0,26,27
 146 837 146 837 216.5 910 c 128,-1,28
 287 983 287 983 405 1004 c 1,29,-1
 405 1158 l 1,30,-1
 585 1158 l 1,31,-1
 585 1004 l 1,32,33
 739 978 739 978 861 856 c 1,34,-1
 729 737 l 1,35,36
 637 835 637 835 489 834 c 0,37,38
 414 834 414 834 371 807.5 c 128,-1,39
 328 781 328 781 328 733 c 0,40,41
 328 690 328 690 360.5 668 c 128,-1,42
 393 646 393 646 486 625 c 0,43,44
 661 589 661 589 763 540 c 1,45,46
 830 506 830 506 868.5 439 c 128,-1,47
 907 372 907 372 907 291 c 0,0,1
EndSplineSet
EndChar
StartChar: ampersand
Encoding: 38 38 8
Width: 583
Flags: W
LayerCount: 2
Fore
SplineSet
584 0 m 1,0,-1
 455 0 l 1,1,-1
 403 61 l 1,2,3
 363 20 363 20 328.5 4 c 128,-1,4
 294 -12 294 -12 244 -12 c 0,5,6
 162 -12 162 -12 109.5 36 c 128,-1,7
 57 84 57 84 57 160 c 0,8,9
 57 230 57 230 113 283 c 0,10,11
 135 303 135 303 184 334 c 1,12,13
 153 372 153 372 141 399.5 c 128,-1,14
 129 427 129 427 129 459 c 0,15,16
 129 517 129 517 171.5 554.5 c 128,-1,17
 214 592 214 592 279 592 c 0,18,19
 342 592 342 592 382 554 c 128,-1,20
 422 516 422 516 422 457 c 0,21,22
 422 369 422 369 326 307 c 1,23,-1
 401 215 l 1,24,25
 416 258 416 258 416 287 c 1,26,-1
 512 287 l 1,27,28
 504 199 504 199 465 139 c 1,29,-1
 584 0 l 1,0,-1
328 455 m 0,30,31
 328 480 328 480 314.5 495 c 128,-1,32
 301 510 301 510 279 510 c 0,33,34
 256 510 256 510 240.5 496.5 c 128,-1,35
 225 483 225 483 225 461 c 0,36,37
 225 444 225 444 240 418 c 1,38,-1
 258 391 l 1,39,40
 262 387 262 387 264 383 c 1,41,-1
 272 375 l 1,42,43
 328 412 328 412 328 455 c 0,30,31
346 133 m 1,44,-1
 240 262 l 1,45,46
 162 219 162 219 162 162 c 0,47,48
 162 128 162 128 187.5 103 c 128,-1,49
 213 78 213 78 248 78 c 0,50,51
 302 78 302 78 346 133 c 1,44,-1
EndSplineSet
EndChar
StartChar: quotesingle
Encoding: 39 39 9
Width: 153
Flags: W
LayerCount: 2
Fore
SplineSet
131 517 m 0,0,1
 131 459 131 459 86 420 c 1,2,-1
 53 437 l 1,3,4
 76 460 76 460 82 480 c 1,5,-1
 76 480 l 2,6,7
 53 480 53 480 38 494 c 128,-1,8
 23 508 23 508 23 529 c 0,9,10
 23 553 23 553 37 569.5 c 128,-1,11
 51 586 51 586 72 586 c 0,12,13
 99 586 99 586 115 567.5 c 128,-1,14
 131 549 131 549 131 517 c 0,0,1
EndSplineSet
EndChar
StartChar: parenleft
Encoding: 40 40 10
Width: 274
Flags: W
LayerCount: 2
Fore
SplineSet
252 0 m 1,0,-1
 147 0 l 1,1,2
 57 90 57 90 57 293 c 0,3,4
 57 489 57 489 147 584 c 1,5,-1
 252 584 l 1,6,7
 164 448 164 448 164 293 c 0,8,9
 164 134 164 134 252 0 c 1,0,-1
EndSplineSet
EndChar
StartChar: parenright
Encoding: 41 41 11
Width: 274
Flags: W
LayerCount: 2
Fore
SplineSet
217 293 m 0,0,1
 217 90 217 90 127 0 c 1,2,-1
 23 0 l 1,3,4
 113 137 113 137 113 293 c 0,5,6
 113 443 113 443 25 584 c 1,7,-1
 127 584 l 1,8,9
 217 489 217 489 217 293 c 0,0,1
EndSplineSet
EndChar
StartChar: asterisk
Encoding: 42 42 12
Width: 707
Flags: W
LayerCount: 2
Fore
SplineSet
629 740 m 1,0,1
 535 713 535 713 488 706 c 1,2,3
 502 697 502 697 515 685 c 128,-1,4
 528 673 528 673 535.5 663 c 128,-1,5
 543 653 543 653 557.5 633 c 128,-1,6
 572 613 572 613 582 600 c 1,7,-1
 449 502 l 2,8,9
 449 500 449 500 431 522.5 c 128,-1,10
 413 545 413 545 391.5 575 c 128,-1,11
 370 605 370 605 361 620 c 1,12,13
 354 605 354 605 330.5 575.5 c 128,-1,14
 307 546 307 546 288 524 c 2,15,-1
 267 502 l 1,16,-1
 130 596 l 1,17,18
 187 678 187 678 221 706 c 1,19,20
 194 709 194 709 81 743 c 1,21,-1
 127 898 l 1,22,23
 139 895 139 895 175.5 887 c 128,-1,24
 212 879 212 879 235.5 871 c 128,-1,25
 259 863 259 863 277 853 c 1,26,27
 270 872 270 872 267.5 891.5 c 128,-1,28
 265 911 265 911 265 923 c 128,-1,29
 265 935 265 935 266 961 c 128,-1,30
 267 987 267 987 267 1000 c 1,31,-1
 449 1000 l 1,32,33
 448 899 448 899 438 850 c 1,34,35
 450 859 450 859 466.5 864.5 c 128,-1,36
 483 870 483 870 496.5 873.5 c 128,-1,37
 510 877 510 877 537.5 883 c 128,-1,38
 565 889 565 889 582 894 c 1,39,-1
 629 740 l 1,0,1
EndSplineSet
EndChar
StartChar: plus
Encoding: 43 43 13
Width: 413
Flags: W
LayerCount: 2
Fore
SplineSet
397 246 m 1,0,-1
 260 246 l 1,1,-1
 260 113 l 1,2,-1
 156 113 l 1,3,-1
 156 246 l 1,4,-1
 18 246 l 1,5,-1
 18 350 l 1,6,-1
 156 350 l 1,7,-1
 156 481 l 1,8,-1
 260 481 l 1,9,-1
 260 350 l 1,10,-1
 397 350 l 1,11,-1
 397 246 l 1,0,-1
EndSplineSet
EndChar
StartChar: comma
Encoding: 44 44 14
Width: 153
Flags: W
LayerCount: 2
Fore
SplineSet
131 27 m 0,0,1
 131 -31 131 -31 86 -70 c 1,2,-1
 53 -53 l 1,3,4
 76 -30 76 -30 82 -10 c 1,5,-1
 76 -10 l 2,6,7
 53 -10 53 -10 38 4 c 128,-1,8
 23 18 23 18 23 39 c 0,9,10
 23 63 23 63 37 79.5 c 128,-1,11
 51 96 51 96 72 96 c 0,12,13
 99 96 99 96 115 77.5 c 128,-1,14
 131 59 131 59 131 27 c 0,0,1
EndSplineSet
EndChar
StartChar: hyphen
Encoding: 45 45 15
AltUni2: 0000ad.ffffffff.0
Width: 241
Flags: W
LayerCount: 2
Fore
SplineSet
223 236 m 1,0,-1
 18 236 l 1,1,-1
 18 340 l 1,2,-1
 223 340 l 1,3,-1
 223 236 l 1,0,-1
EndSplineSet
EndChar
StartChar: period
Encoding: 46 46 16
Width: 265
Flags: W
LayerCount: 2
Fore
SplineSet
228 81 m 0,0,1
 228 43 228 43 200.5 16.5 c 128,-1,2
 173 -10 173 -10 134 -10 c 0,3,4
 96 -10 96 -10 67.5 16.5 c 128,-1,5
 39 43 39 43 39 81 c 0,6,7
 39 120 39 120 67.5 147.5 c 128,-1,8
 96 175 96 175 134 175 c 0,9,10
 173 175 173 175 200.5 147.5 c 128,-1,11
 228 120 228 120 228 81 c 0,0,1
EndSplineSet
EndChar
StartChar: slash
Encoding: 47 47 17
Width: 445
Flags: W
LayerCount: 2
Fore
SplineSet
445 586 m 1,0,-1
 104 0 l 1,1,-1
 0 0 l 1,2,-1
 341 586 l 1,3,-1
 445 586 l 1,0,-1
EndSplineSet
Substitution2: "'frac' Diagonal Fractions in Latin lookup 1 subtable" fraction
EndChar
StartChar: zero
Encoding: 48 48 18
Width: 1097
Flags: W
LayerCount: 2
Fore
SplineSet
968 505 m 0,0,1
 968 404 968 404 945 314 c 128,-1,2
 922 224 922 224 874 148 c 128,-1,3
 826 72 826 72 742.5 27.5 c 128,-1,4
 659 -17 659 -17 552 -17 c 0,5,6
 343 -17 343 -17 236.5 133.5 c 128,-1,7
 130 284 130 284 130 502 c 0,8,9
 130 718 130 718 237 867.5 c 128,-1,10
 344 1017 344 1017 551.5 1017 c 128,-1,11
 759 1017 759 1017 863.5 866.5 c 128,-1,12
 968 716 968 716 968 505 c 0,0,1
790 505 m 2,13,-1
 790 502 l 2,14,15
 790 660 790 660 727.5 749 c 128,-1,16
 665 838 665 838 552 838 c 0,17,18
 430 838 430 838 369 736.5 c 128,-1,19
 308 635 308 635 308 505 c 0,20,21
 308 341 308 341 372.5 251 c 128,-1,22
 437 161 437 161 552 161 c 0,23,24
 662 161 662 161 726 255 c 128,-1,25
 790 349 790 349 790 505 c 2,13,-1
EndSplineSet
Substitution2: "'sinf' Scientific Inferiors in Latin lookup 0 subtable" uni2080
EndChar
StartChar: one
Encoding: 49 49 19
Width: 531
VWidth: 1754
Flags: W
LayerCount: 2
Fore
SplineSet
401 0 m 1,0,-1
 230 0 l 1,1,-1
 230 747 l 1,2,-1
 103 747 l 1,3,-1
 100 891 l 1,4,5
 206 915 206 915 259 1000 c 1,6,-1
 401 1000 l 1,7,-1
 401 0 l 1,0,-1
EndSplineSet
Substitution2: "'sinf' Scientific Inferiors in Latin lookup 0 subtable" uni2081
EndChar
StartChar: two
Encoding: 50 50 20
Width: 552
Flags: W
LayerCount: 2
Fore
SplineSet
512 0 m 1,0,-1
 41 0 l 1,1,2
 41 97 41 97 88 178 c 0,3,4
 162 303 162 303 319 346 c 0,5,6
 368 359 368 359 388 376 c 128,-1,7
 408 393 408 393 408 420 c 0,8,9
 408 487 408 487 293 487 c 0,10,11
 182 487 182 487 113 424 c 1,12,-1
 41 504 l 1,13,14
 145 594 145 594 287 594 c 0,15,16
 390 594 390 594 451 546.5 c 128,-1,17
 512 499 512 499 512 420 c 0,18,19
 512 343 512 343 453 293 c 1,20,21
 420 268 420 268 367 252 c 0,22,23
 307 234 307 234 282 222.5 c 128,-1,24
 257 211 257 211 231 188 c 0,25,26
 196 158 196 158 168 104 c 1,27,-1
 512 104 l 1,28,-1
 512 0 l 1,0,-1
EndSplineSet
Substitution2: "'sinf' Scientific Inferiors in Latin lookup 0 subtable" uni2082
EndChar
StartChar: three
Encoding: 51 51 21
Width: 552
Flags: W
LayerCount: 2
Fore
SplineSet
512 182 m 0,0,1
 512 100 512 100 445.5 45 c 128,-1,2
 379 -10 379 -10 281 -10 c 0,3,4
 163 -10 163 -10 86 61 c 1,5,6
 65 79 65 79 41 109 c 1,7,-1
 125 172 l 1,8,9
 184 96 184 96 287 96 c 0,10,11
 341 96 341 96 374.5 118.5 c 128,-1,12
 408 141 408 141 408 178 c 0,13,14
 408 200 408 200 395 222 c 128,-1,15
 382 244 382 244 362 254 c 0,16,17
 338 266 338 266 305 266 c 2,18,-1
 276 266 l 1,19,-1
 276 371 l 1,20,-1
 301 371 l 2,21,22
 335 371 335 371 357 387 c 128,-1,23
 379 403 379 403 379 428 c 0,24,25
 379 454 379 454 350 471.5 c 128,-1,26
 321 489 321 489 276 489 c 0,27,28
 201 489 201 489 147 432 c 1,29,-1
 70 504 l 1,30,31
 157 594 157 594 283 594 c 0,32,33
 371 594 371 594 428 547.5 c 128,-1,34
 485 501 485 501 485 430 c 0,35,36
 485 379 485 379 438 319 c 1,37,38
 481 281 481 281 496.5 252 c 128,-1,39
 512 223 512 223 512 182 c 0,0,1
EndSplineSet
Substitution2: "'sinf' Scientific Inferiors in Latin lookup 0 subtable" uni2083
EndChar
StartChar: four
Encoding: 52 52 22
Width: 628
Flags: W
LayerCount: 2
Fore
SplineSet
571 119 m 1,0,-1
 485 119 l 1,1,-1
 485 0 l 1,2,-1
 383 0 l 1,3,-1
 383 119 l 1,4,-1
 23 119 l 1,5,-1
 23 213 l 1,6,-1
 383 584 l 1,7,-1
 485 584 l 1,8,-1
 485 213 l 1,9,-1
 571 213 l 1,10,-1
 571 119 l 1,0,-1
383 213 m 1,11,-1
 383 446 l 1,12,-1
 156 213 l 1,13,-1
 383 213 l 1,11,-1
EndSplineSet
Substitution2: "'sinf' Scientific Inferiors in Latin lookup 0 subtable" uni2084
EndChar
StartChar: five
Encoding: 53 53 23
Width: 552
Flags: W
LayerCount: 2
Fore
SplineSet
512 201 m 0,0,1
 512 109 512 109 442.5 49.5 c 128,-1,2
 373 -10 373 -10 266 -10 c 0,3,4
 148 -10 148 -10 41 55 c 1,5,-1
 96 143 l 1,6,7
 173 96 173 96 266 96 c 0,8,9
 332 96 332 96 370 124 c 128,-1,10
 408 152 408 152 408 201 c 0,11,12
 408 252 408 252 371 281 c 0,13,14
 341 305 341 305 276 305 c 0,15,16
 223 305 223 305 164 283 c 1,17,-1
 59 309 l 1,18,-1
 78 584 l 1,19,-1
 467 584 l 1,20,-1
 465 481 l 1,21,-1
 176 481 l 1,22,-1
 170 397 l 1,23,24
 241 412 241 412 283 412 c 0,25,26
 382 412 382 412 447 352 c 128,-1,27
 512 292 512 292 512 201 c 0,0,1
EndSplineSet
Substitution2: "'sinf' Scientific Inferiors in Latin lookup 0 subtable" uni2085
EndChar
StartChar: six
Encoding: 54 54 24
Width: 622
Flags: W
LayerCount: 2
Fore
SplineSet
547 170 m 0,0,1
 547 92 547 92 484.5 41 c 128,-1,2
 422 -10 422 -10 324 -10 c 0,3,4
 217 -10 217 -10 145 53 c 0,5,6
 76 113 76 113 76 231 c 0,7,8
 76 323 76 323 115.5 400 c 128,-1,9
 155 477 155 477 229 528 c 0,10,11
 324 594 324 594 465 594 c 1,12,-1
 465 489 l 1,13,-1
 455 489 l 2,14,15
 365 489 365 489 309 455 c 1,16,17
 237 413 237 413 197 328 c 1,18,19
 263 346 263 346 328 346 c 0,20,21
 423 346 423 346 485 296.5 c 128,-1,22
 547 247 547 247 547 170 c 0,0,1
442 168 m 0,23,24
 442 202 442 202 408.5 222 c 128,-1,25
 375 242 375 242 319 242 c 0,26,27
 265 242 265 242 232 222 c 128,-1,28
 199 202 199 202 199 170 c 0,29,30
 199 136 199 136 232 116 c 128,-1,31
 265 96 265 96 319 96 c 0,32,33
 374 96 374 96 408 116 c 128,-1,34
 442 136 442 136 442 168 c 0,23,24
EndSplineSet
Substitution2: "'sinf' Scientific Inferiors in Latin lookup 0 subtable" uni2086
EndChar
StartChar: seven
Encoding: 55 55 25
Width: 552
Flags: W
LayerCount: 2
Fore
SplineSet
496 479 m 1,0,1
 444 430 444 430 432 410 c 1,2,3
 375 333 375 333 334 211 c 0,4,5
 304 119 304 119 301 0 c 1,6,-1
 197 0 l 1,7,8
 200 116 200 116 223 209 c 1,9,10
 253 320 253 320 307 408 c 0,11,12
 318 427 318 427 354 481 c 1,13,-1
 25 481 l 1,14,-1
 23 584 l 1,15,-1
 496 584 l 1,16,-1
 496 479 l 1,0,1
EndSplineSet
Substitution2: "'sinf' Scientific Inferiors in Latin lookup 0 subtable" uni2087
EndChar
StartChar: eight
Encoding: 56 56 26
Width: 947
VWidth: 1754
Flags: W
LayerCount: 2
Fore
SplineSet
877 319 m 0,0,1
 877 151 877 151 760.5 67 c 128,-1,2
 644 -17 644 -17 473 -17 c 0,3,4
 290 -17 290 -17 180 74.5 c 128,-1,5
 70 166 70 166 70 319 c 0,6,7
 70 461 70 461 182 562 c 1,8,9
 136 617 136 617 118.5 654.5 c 128,-1,10
 101 692 101 692 101 743 c 0,11,12
 101 866 101 866 204 941.5 c 128,-1,13
 307 1017 307 1017 473 1017 c 0,14,15
 641 1017 641 1017 743.5 942 c 128,-1,16
 846 867 846 867 846 743 c 0,17,18
 846 693 846 693 830 655 c 128,-1,19
 814 617 814 617 769 562 c 1,20,21
 877 465 877 465 877 319 c 0,0,1
666 747 m 0,22,23
 666 790 666 790 615.5 814 c 128,-1,24
 565 838 565 838 472.5 838 c 128,-1,25
 380 838 380 838 330.5 814 c 128,-1,26
 281 790 281 790 281 747 c 0,27,28
 281 653 281 653 473 653 c 0,29,30
 666 653 666 653 666 747 c 0,22,23
699 319 m 0,31,32
 699 393 699 393 640 433 c 128,-1,33
 581 473 581 473 473 473 c 128,-1,34
 365 473 365 473 306.5 432.5 c 128,-1,35
 248 392 248 392 248 319 c 0,36,37
 248 237 248 237 322 194 c 1,38,39
 368 165 368 165 473 164 c 0,40,41
 598 164 598 164 646 207 c 0,42,43
 699 256 699 256 699 319 c 0,31,32
EndSplineSet
Substitution2: "'sinf' Scientific Inferiors in Latin lookup 0 subtable" uni2088
EndChar
StartChar: nine
Encoding: 57 57 27
Width: 552
Flags: W
LayerCount: 2
Fore
SplineSet
512 354 m 0,0,1
 512 261 512 261 472.5 183.5 c 128,-1,2
 433 106 433 106 358 55 c 1,3,4
 267 -10 267 -10 125 -10 c 1,5,-1
 125 96 l 1,6,-1
 135 96 l 2,7,8
 220 96 220 96 279 129 c 0,9,10
 319 152 319 152 344 181.5 c 128,-1,11
 369 211 369 211 391 258 c 1,12,13
 327 238 327 238 260 238 c 0,14,15
 165 238 165 238 103 288.5 c 128,-1,16
 41 339 41 339 41 416 c 0,17,18
 41 494 41 494 103.5 544 c 128,-1,19
 166 594 166 594 264 594 c 0,20,21
 370 594 370 594 442 532 c 0,22,23
 512 471 512 471 512 354 c 0,0,1
389 416 m 128,-1,25
 389 448 389 448 355.5 468.5 c 128,-1,26
 322 489 322 489 268 489 c 0,27,28
 212 489 212 489 178.5 469.5 c 128,-1,29
 145 450 145 450 145 416 c 0,30,31
 145 383 145 383 179.5 362.5 c 128,-1,32
 214 342 214 342 270 342 c 0,33,34
 322 342 322 342 355.5 363 c 128,-1,24
 389 384 389 384 389 416 c 128,-1,25
EndSplineSet
Substitution2: "'sinf' Scientific Inferiors in Latin lookup 0 subtable" uni2089
EndChar
StartChar: colon
Encoding: 58 58 28
Width: 198
Flags: W
LayerCount: 2
Fore
SplineSet
158 279 m 0,0,1
 158 256 158 256 140.5 238.5 c 128,-1,2
 123 221 123 221 98 221 c 0,3,4
 75 221 75 221 58 238.5 c 128,-1,5
 41 256 41 256 41 279 c 0,6,7
 41 304 41 304 58 321 c 128,-1,8
 75 338 75 338 98 338 c 0,9,10
 123 338 123 338 140.5 321 c 128,-1,11
 158 304 158 304 158 279 c 0,0,1
158 47 m 0,12,13
 158 24 158 24 140.5 7 c 128,-1,14
 123 -10 123 -10 98 -10 c 0,15,16
 75 -10 75 -10 58 7 c 128,-1,17
 41 24 41 24 41 47 c 0,18,19
 41 72 41 72 58 89 c 128,-1,20
 75 106 75 106 98 106 c 0,21,22
 123 106 123 106 140.5 89 c 128,-1,23
 158 72 158 72 158 47 c 0,12,13
EndSplineSet
EndChar
StartChar: equal
Encoding: 61 61 29
Width: 413
Flags: W
LayerCount: 2
Fore
SplineSet
397 328 m 1,0,-1
 18 328 l 1,1,-1
 18 432 l 1,2,-1
 397 432 l 1,3,-1
 397 328 l 1,0,-1
397 160 m 1,4,-1
 18 160 l 1,5,-1
 18 264 l 1,6,-1
 397 264 l 1,7,-1
 397 160 l 1,4,-1
EndSplineSet
EndChar
StartChar: question
Encoding: 63 63 30
Width: 468
Flags: W
LayerCount: 2
Fore
SplineSet
428 434 m 0,0,1
 428 387 428 387 408.5 354.5 c 128,-1,2
 389 322 389 322 332 276 c 0,3,4
 307 255 307 255 298 244 c 128,-1,5
 289 233 289 233 283 213 c 0,6,7
 278 193 278 193 276 158 c 1,8,-1
 188 158 l 1,9,10
 190 221 190 221 201 252 c 1,11,12
 215 283 215 283 233 301 c 0,13,14
 240 308 240 308 256 322 c 1,15,-1
 276 342 l 1,16,17
 324 384 324 384 324 430 c 0,18,19
 324 458 324 458 301 475 c 128,-1,20
 278 492 278 492 240 492 c 0,21,22
 147 492 147 492 141 399 c 1,23,-1
 41 399 l 1,24,25
 44 477 44 477 78 522 c 0,26,27
 136 596 136 596 244 596 c 0,28,29
 327 596 327 596 377.5 550.5 c 128,-1,30
 428 505 428 505 428 434 c 0,0,1
180 45 m 128,-1,32
 180 68 180 68 195 83 c 128,-1,33
 210 98 210 98 233 98 c 128,-1,34
 256 98 256 98 271.5 83 c 128,-1,35
 287 68 287 68 287 45 c 128,-1,36
 287 22 287 22 271.5 6 c 128,-1,37
 256 -10 256 -10 233 -10 c 128,-1,38
 210 -10 210 -10 195 6 c 128,-1,31
 180 22 180 22 180 45 c 128,-1,32
EndSplineSet
EndChar
StartChar: A
Encoding: 65 65 32
Width: 1100
VWidth: 1754
Flags: W
LayerCount: 2
Fore
SplineSet
1060 0 m 1,0,-1
 868 0 l 1,1,-1
 770 235 l 1,2,-1
 335 235 l 1,3,-1
 236 0 l 1,4,-1
 40 0 l 1,5,-1
 460 1000 l 1,6,-1
 643 1000 l 1,7,-1
 1060 0 l 1,0,-1
691 415 m 1,8,-1
 553 750 l 1,9,-1
 412 415 l 1,10,-1
 691 415 l 1,8,-1
EndSplineSet
EndChar
StartChar: B
Encoding: 66 66 33
Width: 587
Flags: W
LayerCount: 2
Fore
SplineSet
547 172 m 0,0,1
 547 128 547 128 523 87.5 c 128,-1,2
 499 47 499 47 459 25 c 0,3,4
 414 0 414 0 369 0 c 2,5,-1
 340 0 l 1,6,-1
 76 0 l 1,7,-1
 76 584 l 1,8,-1
 348 584 l 2,9,10
 408 584 408 584 449 563 c 1,11,12
 528 516 528 516 528 430 c 0,13,14
 528 357 528 357 471 309 c 1,15,16
 547 254 547 254 547 172 c 0,0,1
424 422 m 128,-1,18
 424 448 424 448 403.5 463.5 c 128,-1,19
 383 479 383 479 348 479 c 2,20,-1
 182 479 l 1,21,-1
 182 362 l 1,22,-1
 348 362 l 2,23,24
 382 362 382 362 403 379 c 128,-1,17
 424 396 424 396 424 422 c 128,-1,18
442 178 m 0,25,26
 442 212 442 212 415 235 c 128,-1,27
 388 258 388 258 348 258 c 2,28,-1
 182 258 l 1,29,-1
 182 104 l 1,30,-1
 348 104 l 2,31,32
 389 104 389 104 415.5 125 c 128,-1,33
 442 146 442 146 442 178 c 0,25,26
EndSplineSet
EndChar
StartChar: C
Encoding: 67 67 34
Width: 587
Flags: W
LayerCount: 2
Fore
SplineSet
530 119 m 1,0,1
 498 58 498 58 437.5 24 c 128,-1,2
 377 -10 377 -10 305 -10 c 0,3,4
 190 -10 190 -10 123.5 72.5 c 128,-1,5
 57 155 57 155 57 293 c 0,6,7
 57 432 57 432 123.5 513 c 128,-1,8
 190 594 190 594 305 594 c 0,9,10
 376 594 376 594 436.5 560 c 128,-1,11
 497 526 497 526 530 465 c 1,12,-1
 438 416 l 1,13,14
 419 445 419 445 397 459 c 1,15,16
 359 489 359 489 305 489 c 0,17,18
 255 489 255 489 222 458 c 128,-1,19
 189 427 189 427 176.5 385.5 c 128,-1,20
 164 344 164 344 164 295 c 0,21,22
 164 200 164 200 201.5 147 c 128,-1,23
 239 94 239 94 305 94 c 0,24,25
 344 94 344 94 371.5 109.5 c 128,-1,26
 399 125 399 125 438 168 c 1,27,-1
 530 119 l 1,0,1
EndSplineSet
EndChar
StartChar: D
Encoding: 68 68 35
Width: 600
Flags: W
LayerCount: 2
Fore
SplineSet
543 293 m 0,0,1
 543 114 543 114 401 35 c 0,2,3
 339 0 339 0 264 0 c 2,4,-1
 76 0 l 1,5,-1
 76 584 l 1,6,-1
 264 584 l 2,7,8
 339 584 339 584 403 547 c 0,9,10
 543 468 543 468 543 293 c 0,0,1
438 293 m 0,11,12
 438 407 438 407 352 457 c 1,13,14
 310 479 310 479 264 479 c 2,15,-1
 182 479 l 1,16,-1
 182 104 l 1,17,-1
 264 104 l 2,18,19
 307 104 307 104 348 127 c 0,20,21
 438 176 438 176 438 293 c 0,11,12
EndSplineSet
EndChar
StartChar: E
Encoding: 69 69 36
Width: 552
Flags: W
LayerCount: 2
Fore
SplineSet
512 0 m 1,0,-1
 76 0 l 1,1,-1
 76 584 l 1,2,-1
 502 584 l 1,3,-1
 502 479 l 1,4,-1
 182 479 l 1,5,-1
 182 371 l 1,6,-1
 356 371 l 1,7,-1
 356 264 l 1,8,-1
 182 264 l 1,9,-1
 182 104 l 1,10,-1
 512 104 l 1,11,-1
 512 0 l 1,0,-1
EndSplineSet
EndChar
StartChar: F
Encoding: 70 70 37
Width: 536
Flags: W
LayerCount: 2
Fore
SplineSet
512 479 m 1,0,-1
 182 479 l 1,1,-1
 182 360 l 1,2,-1
 365 360 l 1,3,-1
 365 254 l 1,4,-1
 182 254 l 1,5,-1
 182 0 l 1,6,-1
 76 0 l 1,7,-1
 76 584 l 1,8,-1
 512 584 l 1,9,-1
 512 479 l 1,0,-1
EndSplineSet
EndChar
StartChar: G
Encoding: 71 71 38
Width: 1010
VWidth: 1754
Flags: W
LayerCount: 2
Fore
SplineSet
560 498 m 1,0,-1
 910 498 l 1,1,-1
 910 368 l 2,2,3
 910 205 910 205 795 94 c 128,-1,4
 680 -17 680 -17 514 -17 c 0,5,6
 374 -17 374 -17 277 60 c 128,-1,7
 180 137 180 137 140 251 c 128,-1,8
 100 365 100 365 100 502 c 0,9,10
 100 732 100 732 214.5 874.5 c 128,-1,11
 329 1017 329 1017 514 1017 c 0,12,13
 773 1017 773 1017 886 769 c 1,14,-1
 704 706 l 1,15,16
 642 838 642 838 514 838 c 0,17,18
 410 838 410 838 344.5 744.5 c 128,-1,19
 279 651 279 651 279 502 c 0,20,21
 279 411 279 411 297 340 c 128,-1,22
 315 269 315 269 371 215 c 128,-1,23
 427 161 427 161 514 161 c 0,24,25
 588 161 588 161 647 205.5 c 128,-1,26
 706 250 706 250 725 319 c 1,27,-1
 560 319 l 1,28,-1
 560 498 l 1,0,-1
EndSplineSet
EndChar
StartChar: H
Encoding: 72 72 39
Width: 622
Flags: W
LayerCount: 2
Fore
SplineSet
547 0 m 1,0,-1
 442 0 l 1,1,-1
 442 256 l 1,2,-1
 180 254 l 1,3,-1
 180 0 l 1,4,-1
 76 0 l 1,5,-1
 76 584 l 1,6,-1
 180 584 l 1,7,-1
 180 358 l 1,8,-1
 442 358 l 1,9,-1
 442 584 l 1,10,-1
 547 584 l 1,11,-1
 547 0 l 1,0,-1
EndSplineSet
EndChar
StartChar: I
Encoding: 73 73 40
Width: 256
Flags: W
LayerCount: 2
Fore
SplineSet
180 0 m 1,0,-1
 76 0 l 1,1,-1
 76 584 l 1,2,-1
 180 584 l 1,3,-1
 180 0 l 1,0,-1
EndSplineSet
EndChar
StartChar: J
Encoding: 74 74 41
Width: 542
Flags: W
LayerCount: 2
Fore
SplineSet
467 240 m 2,0,1
 467 153 467 153 438 102 c 0,2,3
 410 51 410 51 357.5 20.5 c 128,-1,4
 305 -10 305 -10 244 -10 c 0,5,6
 136 -10 136 -10 68 74 c 0,7,8
 39 111 39 111 23 156 c 1,9,-1
 125 182 l 1,10,11
 136 148 136 148 164 123 c 1,12,13
 203 96 203 96 244 96 c 0,14,15
 277 96 277 96 305.5 112.5 c 128,-1,16
 334 129 334 129 348 156 c 0,17,18
 362 184 362 184 362 236 c 2,19,-1
 362 584 l 1,20,-1
 467 584 l 1,21,-1
 467 240 l 2,0,1
EndSplineSet
EndChar
StartChar: K
Encoding: 75 75 42
Width: 988
Flags: W
LayerCount: 2
Fore
SplineSet
958 0 m 1,0,-1
 754 0 l 1,1,-1
 498 519 l 1,2,-1
 308 281 l 1,3,-1
 308 0 l 1,4,-1
 130 0 l 1,5,-1
 130 1000 l 1,6,-1
 308 1000 l 1,7,-1
 308 565 l 1,8,-1
 663 1000 l 1,9,-1
 894 1000 l 1,10,-1
 629 673 l 1,11,-1
 958 0 l 1,0,-1
EndSplineSet
EndChar
StartChar: L
Encoding: 76 76 43
Width: 536
Flags: W
LayerCount: 2
Fore
SplineSet
512 0 m 1,0,-1
 76 0 l 1,1,-1
 76 584 l 1,2,-1
 180 584 l 1,3,-1
 180 90 l 1,4,-1
 512 90 l 1,5,-1
 512 0 l 1,0,-1
EndSplineSet
EndChar
StartChar: M
Encoding: 77 77 44
Width: 698
Flags: W
LayerCount: 2
Fore
SplineSet
623 0 m 1,0,-1
 520 0 l 1,1,-1
 520 356 l 1,2,-1
 348 0 l 1,3,-1
 178 356 l 1,4,-1
 178 0 l 1,5,-1
 76 0 l 1,6,-1
 76 584 l 1,7,-1
 178 584 l 1,8,-1
 348 238 l 1,9,-1
 520 584 l 1,10,-1
 623 584 l 1,11,-1
 623 0 l 1,0,-1
EndSplineSet
EndChar
StartChar: N
Encoding: 78 78 45
Width: 622
Flags: W
LayerCount: 2
Fore
SplineSet
547 0 m 1,0,-1
 457 0 l 1,1,-1
 178 401 l 1,2,-1
 178 0 l 1,3,-1
 76 0 l 1,4,-1
 76 584 l 1,5,-1
 178 584 l 1,6,-1
 446 199 l 1,7,-1
 446 584 l 1,8,-1
 547 584 l 1,9,-1
 547 0 l 1,0,-1
EndSplineSet
EndChar
StartChar: O
Encoding: 79 79 46
Width: 606
Flags: W
LayerCount: 2
Fore
SplineSet
547 295 m 0,0,1
 547 158 547 158 481 74 c 128,-1,2
 415 -10 415 -10 305 -10 c 0,3,4
 185 -10 185 -10 121 80.5 c 128,-1,5
 57 171 57 171 57 293 c 0,6,7
 57 433 57 433 123.5 513.5 c 128,-1,8
 190 594 190 594 305 594 c 0,9,10
 412 594 412 594 479.5 511 c 128,-1,11
 547 428 547 428 547 295 c 0,0,1
442 293 m 0,12,13
 442 386 442 386 406.5 437.5 c 128,-1,14
 371 489 371 489 305 489 c 128,-1,15
 239 489 239 489 201.5 437 c 128,-1,16
 164 385 164 385 164 293 c 0,17,18
 164 199 164 199 201.5 146.5 c 128,-1,19
 239 94 239 94 305 94 c 0,20,21
 357 94 357 94 389.5 126.5 c 128,-1,22
 422 159 422 159 432 200.5 c 128,-1,23
 442 242 442 242 442 293 c 0,12,13
EndSplineSet
EndChar
StartChar: P
Encoding: 80 80 47
Width: 565
Flags: W
LayerCount: 2
Fore
SplineSet
543 406 m 0,0,1
 543 360 543 360 518.5 317.5 c 128,-1,2
 494 275 494 275 453 252 c 0,3,4
 411 229 411 229 348 229 c 2,5,-1
 182 229 l 1,6,-1
 182 0 l 1,7,-1
 76 0 l 1,8,-1
 76 584 l 1,9,-1
 348 584 l 2,10,11
 407 584 407 584 453 559 c 1,12,13
 495 535 495 535 519 495 c 128,-1,14
 543 455 543 455 543 406 c 0,0,1
438 406 m 0,15,16
 438 439 438 439 414.5 459 c 128,-1,17
 391 479 391 479 352 479 c 2,18,-1
 182 479 l 1,19,-1
 182 334 l 1,20,-1
 352 334 l 2,21,22
 390 334 390 334 414 354 c 128,-1,23
 438 374 438 374 438 406 c 0,15,16
EndSplineSet
EndChar
StartChar: Q
Encoding: 81 81 48
Width: 1038
VWidth: 1754
Flags: W
LayerCount: 2
Fore
SplineSet
938 502 m 0,0,1
 938 243 938 243 804 104 c 1,2,-1
 857 24 l 1,3,-1
 724 -63 l 1,4,-1
 676 14 l 1,5,6
 597 -17 597 -17 516 -17 c 0,7,8
 329 -17 329 -17 214.5 126 c 128,-1,9
 100 269 100 269 100 502 c 0,10,11
 100 733 100 733 217.5 875 c 128,-1,12
 335 1017 335 1017 522 1017 c 0,13,14
 714 1017 714 1017 826 876 c 128,-1,15
 938 735 938 735 938 502 c 0,0,1
760 502 m 0,16,17
 760 661 760 661 698 749.5 c 128,-1,18
 636 838 636 838 522 838 c 0,19,20
 411 838 411 838 344.5 748 c 128,-1,21
 278 658 278 658 278 502 c 0,22,23
 278 343 278 343 341.5 253.5 c 128,-1,24
 405 164 405 164 516 164 c 0,25,26
 549 164 549 164 570 168 c 1,27,-1
 496 281 l 1,28,-1
 626 368 l 1,29,-1
 700 260 l 1,30,31
 760 353 760 353 760 502 c 0,16,17
EndSplineSet
EndChar
StartChar: R
Encoding: 82 82 49
Width: 587
Flags: W
LayerCount: 2
Fore
SplineSet
547 0 m 1,0,-1
 430 0 l 1,1,-1
 336 229 l 1,2,-1
 180 229 l 1,3,-1
 180 0 l 1,4,-1
 76 0 l 1,5,-1
 76 584 l 1,6,-1
 344 584 l 2,7,8
 401 584 401 584 444 559 c 0,9,10
 486 535 486 535 510.5 495 c 128,-1,11
 535 455 535 455 535 406 c 128,-1,12
 535 357 535 357 510 316 c 128,-1,13
 485 275 485 275 440 250 c 1,14,-1
 547 0 l 1,0,-1
430 406 m 0,15,16
 430 440 430 440 407 459.5 c 128,-1,17
 384 479 384 479 346 479 c 2,18,-1
 180 479 l 1,19,-1
 180 334 l 1,20,-1
 346 334 l 2,21,22
 384 334 384 334 407 354 c 128,-1,23
 430 374 430 374 430 406 c 0,15,16
EndSplineSet
EndChar
StartChar: S
Encoding: 83 83 50
Width: 552
Flags: W
LayerCount: 2
Fore
SplineSet
512 170 m 0,0,1
 512 82 512 82 430 33 c 0,2,3
 366 -6 366 -6 283 -6 c 0,4,5
 138 -6 138 -6 41 106 c 1,6,-1
 125 172 l 1,7,8
 187 98 187 98 281 98 c 0,9,10
 336 98 336 98 372 120 c 128,-1,11
 408 142 408 142 408 174 c 0,12,13
 408 209 408 209 371 227 c 1,14,15
 329 244 329 244 301 250 c 1,16,-1
 274 258 l 1,17,-1
 248 264 l 1,18,-1
 219 272 l 1,19,20
 137 291 137 291 104 330 c 1,21,22
 68 369 68 369 68 428 c 0,23,24
 68 500 68 500 123.5 545 c 128,-1,25
 179 590 179 590 268 590 c 0,26,27
 398 590 398 590 485 500 c 1,28,-1
 408 430 l 1,29,30
 354 487 354 487 268 487 c 0,31,32
 224 487 224 487 199 471.5 c 128,-1,33
 174 456 174 456 174 428 c 0,34,35
 174 403 174 403 193 390 c 128,-1,36
 212 377 212 377 266 365 c 0,37,38
 368 344 368 344 428 315 c 1,39,40
 467 295 467 295 489.5 256 c 128,-1,41
 512 217 512 217 512 170 c 0,0,1
EndSplineSet
EndChar
StartChar: T
Encoding: 84 84 51
Width: 483
Flags: W
LayerCount: 2
Fore
SplineSet
461 481 m 1,0,-1
 293 481 l 1,1,-1
 293 0 l 1,2,-1
 190 0 l 1,3,-1
 190 481 l 1,4,-1
 23 481 l 1,5,-1
 23 584 l 1,6,-1
 461 584 l 1,7,-1
 461 481 l 1,0,-1
EndSplineSet
EndChar
StartChar: U
Encoding: 85 85 52
Width: 622
Flags: W
LayerCount: 2
Fore
SplineSet
547 236 m 2,0,1
 547 129 547 129 480.5 59.5 c 128,-1,2
 414 -10 414 -10 311 -10 c 128,-1,3
 208 -10 208 -10 142 59.5 c 128,-1,4
 76 129 76 129 76 236 c 2,5,-1
 76 584 l 1,6,-1
 180 584 l 1,7,-1
 180 236 l 2,8,9
 180 191 180 191 199 160 c 0,10,11
 237 96 237 96 311 96 c 0,12,13
 346 96 346 96 376.5 113.5 c 128,-1,14
 407 131 407 131 424 160 c 0,15,16
 442 190 442 190 442 236 c 2,17,-1
 442 584 l 1,18,-1
 547 584 l 1,19,-1
 547 236 l 2,0,1
EndSplineSet
EndChar
StartChar: V
Encoding: 86 86 53
Width: 589
Flags: W
LayerCount: 2
Fore
SplineSet
567 584 m 1,0,-1
 350 0 l 1,1,-1
 238 0 l 1,2,-1
 23 584 l 1,3,-1
 135 584 l 1,4,-1
 295 158 l 1,5,-1
 455 584 l 1,6,-1
 567 584 l 1,0,-1
EndSplineSet
EndChar
StartChar: W
Encoding: 87 87 54
Width: 663
Flags: W
LayerCount: 2
Fore
SplineSet
641 584 m 1,0,-1
 537 0 l 1,1,-1
 426 0 l 1,2,-1
 332 391 l 1,3,-1
 240 0 l 1,4,-1
 129 0 l 1,5,-1
 23 584 l 1,6,-1
 131 584 l 1,7,-1
 195 207 l 1,8,-1
 281 584 l 1,9,-1
 385 584 l 1,10,-1
 475 207 l 1,11,-1
 535 584 l 1,12,-1
 641 584 l 1,0,-1
EndSplineSet
EndChar
StartChar: X
Encoding: 88 88 55
Width: 587
Flags: W
LayerCount: 2
Fore
SplineSet
547 0 m 1,0,-1
 424 0 l 1,1,-1
 293 207 l 1,2,-1
 164 0 l 1,3,-1
 41 0 l 1,4,-1
 231 307 l 1,5,-1
 57 584 l 1,6,-1
 182 584 l 1,7,-1
 293 406 l 1,8,-1
 403 584 l 1,9,-1
 528 584 l 1,10,-1
 356 307 l 1,11,-1
 547 0 l 1,0,-1
EndSplineSet
EndChar
StartChar: Y
Encoding: 89 89 56
Width: 1100
VWidth: 1754
Flags: W
LayerCount: 2
Fore
SplineSet
1060 1000 m 1,0,-1
 640 408 l 1,1,-1
 640 0 l 1,2,-1
 460 0 l 1,3,-1
 460 408 l 1,4,-1
 40 1000 l 1,5,-1
 261 1000 l 1,6,-1
 553 593 l 1,7,-1
 839 1000 l 1,8,-1
 1060 1000 l 1,0,-1
EndSplineSet
EndChar
StartChar: Z
Encoding: 90 90 57
Width: 540
Flags: W
LayerCount: 2
Fore
SplineSet
500 0 m 1,0,-1
 41 0 l 1,1,-1
 41 119 l 1,2,-1
 373 481 l 1,3,-1
 59 481 l 1,4,-1
 59 584 l 1,5,-1
 500 584 l 1,6,-1
 500 465 l 1,7,-1
 170 104 l 1,8,-1
 500 104 l 1,9,-1
 500 0 l 1,0,-1
EndSplineSet
EndChar
StartChar: a
Encoding: 97 97 58
Width: 432
Flags: W
LayerCount: 2
Fore
SplineSet
387 0 m 1,0,-1
 289 0 l 1,1,-1
 289 18 l 1,2,3
 256 -1 256 -1 212 -6 c 128,-1,4
 168 -11 168 -11 127 -1 c 128,-1,5
 86 9 86 9 57.5 46 c 128,-1,6
 29 83 29 83 29 141 c 0,7,8
 29 192 29 192 54.5 225 c 128,-1,9
 80 258 80 258 120 269.5 c 128,-1,10
 160 281 160 281 204 280 c 128,-1,11
 248 279 248 279 289 266 c 1,12,13
 285 304 285 304 261.5 321.5 c 128,-1,14
 238 339 238 339 207 336 c 128,-1,15
 176 333 176 333 149 324 c 128,-1,16
 122 315 122 315 104 303 c 1,17,-1
 61 393 l 1,18,19
 140 436 140 436 217 436 c 0,20,21
 387 436 387 436 387 258 c 2,22,-1
 387 0 l 1,0,-1
289 109 m 1,23,-1
 289 174 l 1,24,25
 233 197 233 197 196 194.5 c 128,-1,26
 159 192 159 192 141 177 c 128,-1,27
 123 162 123 162 123 141 c 0,28,29
 123 119 123 119 140.5 103.5 c 128,-1,30
 158 88 158 88 195 85.5 c 128,-1,31
 232 83 232 83 289 109 c 1,23,-1
EndSplineSet
EndChar
StartChar: b
Encoding: 98 98 59
Width: 765
VWidth: 1754
Flags: W
LayerCount: 2
Fore
SplineSet
705 361 m 0,0,1
 705 284 705 284 678.5 212 c 128,-1,2
 652 140 652 140 606.5 89 c 128,-1,3
 561 38 561 38 506 7 c 128,-1,4
 451 -24 451 -24 388.5 -19.5 c 128,-1,5
 326 -15 326 -15 270 27 c 1,6,-1
 270 0 l 1,7,-1
 90 0 l 1,8,-1
 90 951 l 1,9,-1
 270 1017 l 1,10,-1
 270 702 l 1,11,12
 388 767 388 767 484.5 730.5 c 128,-1,13
 581 694 581 694 643 588.5 c 128,-1,14
 705 483 705 483 705 361 c 0,0,1
525 365 m 0,15,16
 525 456 525 456 488 515 c 128,-1,17
 451 574 451 574 384 569 c 0,18,19
 346 567 346 567 312 541.5 c 128,-1,20
 278 516 278 516 270 492 c 1,21,-1
 270 238 l 1,22,23
 311 157 311 157 381 158 c 0,24,25
 446 158 446 158 485.5 217 c 128,-1,26
 525 276 525 276 525 365 c 0,15,16
EndSplineSet
EndChar
StartChar: c
Encoding: 99 99 60
Width: 707
VWidth: 1754
Flags: W
LayerCount: 2
Fore
SplineSet
677 120 m 1,0,1
 567 -17 567 -17 408 -17 c 0,2,3
 257 -17 257 -17 158.5 91 c 128,-1,4
 60 199 60 199 60 365 c 128,-1,5
 60 531 60 531 158.5 639 c 128,-1,6
 257 747 257 747 408 747 c 0,7,8
 567 747 567 747 677 610 c 1,9,-1
 565 462 l 1,10,11
 543 515 543 515 501 545.5 c 128,-1,12
 459 576 459 576 411 576 c 0,13,14
 332 576 332 576 281.5 516.5 c 128,-1,15
 231 457 231 457 231 364.5 c 128,-1,16
 231 272 231 272 281.5 213 c 128,-1,17
 332 154 332 154 411 154 c 0,18,19
 495 154 495 154 555 245 c 1,20,-1
 677 120 l 1,0,1
EndSplineSet
EndChar
StartChar: d
Encoding: 100 100 61
Width: 446
Flags: W
LayerCount: 2
Fore
SplineSet
395 0 m 1,0,-1
 289 0 l 1,1,-1
 289 31 l 1,2,3
 262 7 262 7 247 0.5 c 128,-1,4
 232 -6 232 -6 205 -6 c 0,5,6
 136 -6 136 -6 85.5 58.5 c 128,-1,7
 35 123 35 123 35 211 c 0,8,9
 35 301 35 301 85.5 368.5 c 128,-1,10
 136 436 136 436 205 436 c 0,11,12
 232 436 232 436 247 429.5 c 128,-1,13
 262 423 262 423 289 399 c 1,14,-1
 289 555 l 1,15,-1
 395 594 l 1,16,-1
 395 0 l 1,0,-1
289 139 m 1,17,-1
 289 287 l 1,18,19
 263 332 263 332 223 332 c 0,20,21
 186 332 186 332 161.5 298 c 128,-1,22
 137 264 137 264 137 213 c 128,-1,23
 137 162 137 162 161.5 127 c 128,-1,24
 186 92 186 92 223 92 c 0,25,26
 265 92 265 92 289 139 c 1,17,-1
EndSplineSet
EndChar
StartChar: e
Encoding: 101 101 62
Width: 419
Flags: W
LayerCount: 2
Fore
SplineSet
397 180 m 1,0,-1
 137 180 l 1,1,2
 139 174 139 174 141 166 c 0,3,4
 148 130 148 130 170.5 108 c 128,-1,5
 193 86 193 86 221 86 c 0,6,7
 259 86 259 86 289 121 c 1,8,-1
 358 59 l 1,9,-1
 354 55 l 1,10,11
 302 -10 302 -10 221 -10 c 0,12,13
 143 -10 143 -10 89 54.5 c 128,-1,14
 35 119 35 119 35 213 c 0,15,16
 35 305 35 305 87.5 368.5 c 128,-1,17
 140 432 140 432 217 432 c 0,18,19
 296 432 296 432 346 367 c 1,20,21
 368 341 368 341 382.5 296 c 128,-1,22
 397 251 397 251 397 211 c 2,23,-1
 397 180 l 1,0,-1
295 262 m 1,24,25
 282 306 282 306 266 322 c 128,-1,26
 250 338 250 338 221 338 c 0,27,28
 161 338 161 338 143 262 c 1,29,-1
 295 262 l 1,24,25
EndSplineSet
EndChar
StartChar: f
Encoding: 102 102 63
Width: 256
Flags: W
LayerCount: 2
Fore
SplineSet
244 324 m 1,0,-1
 180 324 l 1,1,-1
 180 0 l 1,2,-1
 78 0 l 1,3,-1
 78 324 l 1,4,-1
 23 324 l 1,5,-1
 23 424 l 1,6,-1
 78 424 l 1,7,-1
 78 477 l 2,8,9
 78 533 78 533 103 558.5 c 128,-1,10
 128 584 128 584 182 584 c 0,11,12
 212 584 212 584 244 580 c 1,13,-1
 244 487 l 1,14,15
 228 489 228 489 213 489 c 0,16,17
 180 489 180 489 180 451 c 2,18,-1
 180 424 l 1,19,-1
 244 424 l 1,20,-1
 244 324 l 1,0,-1
EndSplineSet
EndChar
StartChar: g
Encoding: 103 103 64
Width: 450
Flags: W
LayerCount: 2
Fore
SplineSet
397 4 m 2,0,1
 397 -45 397 -45 392 -69.5 c 128,-1,2
 387 -94 387 -94 371 -119 c 1,3,4
 351 -153 351 -153 321.5 -175 c 128,-1,5
 292 -197 292 -197 233 -221 c 2,6,-1
 223 -225 l 1,7,-1
 182 -133 l 1,8,9
 244 -101 244 -101 269.5 -72.5 c 128,-1,10
 295 -44 295 -44 295 -10 c 2,11,-1
 295 35 l 1,12,13
 272 11 272 11 253 0.5 c 128,-1,14
 234 -10 234 -10 203 -10 c 0,15,16
 134 -11 134 -11 84.5 54.5 c 128,-1,17
 35 120 35 120 35 211 c 0,18,19
 35 303 35 303 86.5 373 c 128,-1,20
 138 443 138 443 205 436 c 0,21,22
 237 433 237 433 250 426.5 c 128,-1,23
 263 420 263 420 295 395 c 1,24,-1
 295 426 l 1,25,-1
 397 426 l 1,26,-1
 397 4 l 2,0,1
295 135 m 1,27,-1
 295 287 l 1,28,29
 262 332 262 332 221 332 c 0,30,31
 185 332 185 332 162 298 c 128,-1,32
 139 264 139 264 139 211 c 128,-1,33
 139 158 139 158 162 124 c 128,-1,34
 185 90 185 90 221 90 c 0,35,36
 262 90 262 90 295 135 c 1,27,-1
EndSplineSet
EndChar
StartChar: h
Encoding: 104 104 65
Width: 785
VWidth: 1754
Flags: W
LayerCount: 2
Fore
SplineSet
705 0 m 1,0,-1
 535 0 l 1,1,-1
 535 435 l 2,2,3
 535 490 535 490 496.5 529.5 c 128,-1,4
 458 569 458 569 403 569 c 128,-1,5
 348 569 348 569 309 535.5 c 128,-1,6
 270 502 270 502 270 428 c 2,7,-1
 270 0 l 1,8,-1
 90 0 l 1,9,-1
 90 951 l 1,10,-1
 270 1017 l 1,11,-1
 270 677 l 1,12,13
 325 747 325 747 437 747 c 0,14,15
 555 747 555 747 630 677.5 c 128,-1,16
 705 608 705 608 705 502 c 2,17,-1
 705 0 l 1,0,-1
EndSplineSet
EndChar
StartChar: i
Encoding: 105 105 66
Width: 363
VWidth: 1754
Flags: W
LayerCount: 2
Fore
SplineSet
273 930 m 0,0,1
 273 892 273 892 245.5 865 c 128,-1,2
 218 838 218 838 181 838 c 0,3,4
 142 838 142 838 116 864.5 c 128,-1,5
 90 891 90 891 90 930 c 0,6,7
 90 968 90 968 115.5 992.5 c 128,-1,8
 141 1017 141 1017 181 1017 c 0,9,10
 219 1017 219 1017 246 991.5 c 128,-1,11
 273 966 273 966 273 930 c 0,0,1
273 730 m 1,12,-1
 273 0 l 1,13,-1
 93 0 l 1,14,-1
 93 730 l 1,15,-1
 273 730 l 1,12,-1
EndSplineSet
EndChar
StartChar: j
Encoding: 106 106 67
Width: 229
Flags: W
LayerCount: 2
Fore
SplineSet
176 543 m 128,-1,1
 176 521 176 521 160.5 505 c 128,-1,2
 145 489 145 489 123 489 c 0,3,4
 100 489 100 489 85 504.5 c 128,-1,5
 70 520 70 520 70 543 c 0,6,7
 70 565 70 565 85.5 579.5 c 128,-1,8
 101 594 101 594 123 594 c 128,-1,9
 145 594 145 594 160.5 579.5 c 128,-1,0
 176 565 176 565 176 543 c 128,-1,1
178 14 m 2,10,11
 178 -50 178 -50 167 -83.5 c 128,-1,12
 156 -117 156 -117 127 -143 c 0,13,14
 83 -182 83 -182 0 -188 c 1,15,-1
 0 -94 l 1,16,17
 47 -91 47 -91 58.5 -69.5 c 128,-1,18
 70 -48 70 -48 70 14 c 2,19,-1
 70 426 l 1,20,-1
 178 426 l 1,21,-1
 178 14 l 2,10,11
EndSplineSet
EndChar
StartChar: k
Encoding: 107 107 68
Width: 710
Flags: W
LayerCount: 2
Fore
SplineSet
690 0 m 1,0,-1
 512 0 l 1,1,-1
 368 348 l 1,2,-1
 271 214 l 1,3,-1
 271 0 l 1,4,-1
 91 0 l 1,5,-1
 91 951 l 1,6,-1
 271 1017 l 1,7,-1
 271 478 l 1,8,-1
 462 726 l 1,9,-1
 683 726 l 1,10,-1
 492 495 l 1,11,-1
 690 0 l 1,0,-1
EndSplineSet
EndChar
StartChar: l
Encoding: 108 108 69
Width: 356
Flags: W
LayerCount: 2
Fore
SplineSet
271 0 m 1,0,-1
 91 0 l 1,1,-1
 91 944 l 1,2,-1
 271 1017 l 1,3,-1
 271 0 l 1,0,-1
EndSplineSet
EndChar
StartChar: m
Encoding: 109 109 70
Width: 1204
VWidth: 1754
Flags: W
LayerCount: 2
Fore
SplineSet
1124 0 m 1,0,-1
 946 0 l 1,1,-1
 946 435 l 2,2,3
 946 495 946 495 912 532 c 128,-1,4
 878 569 878 569 819 569 c 0,5,6
 768 569 768 569 731 531 c 128,-1,7
 694 493 694 493 694 442 c 2,8,-1
 694 0 l 1,9,-1
 521 0 l 1,10,-1
 521 435 l 2,11,12
 521 492 521 492 482.5 530.5 c 128,-1,13
 444 569 444 569 388 569 c 0,14,15
 337 569 337 569 303.5 532 c 0,16,17
 270 494 270 494 270 438 c 2,18,-1
 270 0 l 1,19,-1
 90 0 l 1,20,-1
 90 730 l 1,21,-1
 270 730 l 1,22,-1
 270 670 l 1,23,24
 347 747 347 747 448 747 c 0,25,26
 561 747 561 747 638 659 c 1,27,28
 748 746 748 746 859 747 c 0,29,30
 974 747 974 747 1049 677.5 c 128,-1,31
 1124 608 1124 608 1124 502 c 2,32,-1
 1124 0 l 1,0,-1
EndSplineSet
EndChar
StartChar: n
Encoding: 110 110 71
Width: 460
Flags: W
LayerCount: 2
Fore
SplineSet
414 0 m 1,0,-1
 311 0 l 1,1,-1
 311 256 l 2,2,3
 311 291 311 291 289.5 313.5 c 128,-1,4
 268 336 268 336 233 336 c 0,5,6
 202 336 202 336 180 312 c 128,-1,7
 158 288 158 288 158 256 c 2,8,-1
 158 0 l 1,9,-1
 53 0 l 1,10,-1
 53 426 l 1,11,-1
 158 426 l 1,12,-1
 158 391 l 1,13,14
 195 434 195 434 258 434 c 0,15,16
 327 434 327 434 370.5 395.5 c 128,-1,17
 414 357 414 357 414 297 c 2,18,-1
 414 0 l 1,0,-1
EndSplineSet
EndChar
StartChar: o
Encoding: 111 111 72
Width: 442
Flags: W
LayerCount: 2
Fore
SplineSet
408 213 m 128,-1,1
 408 121 408 121 353.5 55.5 c 128,-1,2
 299 -10 299 -10 221 -10 c 128,-1,3
 143 -10 143 -10 89 55 c 128,-1,4
 35 120 35 120 35 213 c 128,-1,5
 35 306 35 306 89 371 c 128,-1,6
 143 436 143 436 221 436 c 128,-1,7
 299 436 299 436 353.5 370.5 c 128,-1,0
 408 305 408 305 408 213 c 128,-1,1
301 213 m 128,-1,9
 301 265 301 265 279 298.5 c 128,-1,10
 257 332 257 332 221 332 c 128,-1,11
 185 332 185 332 162 298.5 c 128,-1,12
 139 265 139 265 139 213 c 128,-1,13
 139 161 139 161 162 126.5 c 128,-1,14
 185 92 185 92 221 92 c 128,-1,15
 257 92 257 92 279 126.5 c 128,-1,8
 301 161 301 161 301 213 c 128,-1,9
EndSplineSet
EndChar
StartChar: p
Encoding: 112 112 73
Width: 450
Flags: W
LayerCount: 2
Fore
SplineSet
416 213 m 128,-1,1
 416 124 416 124 364.5 58 c 128,-1,2
 313 -8 313 -8 244 -8 c 0,3,4
 217 -8 217 -8 202.5 -1 c 128,-1,5
 188 6 188 6 158 31 c 1,6,-1
 158 -135 l 1,7,-1
 53 -174 l 1,8,-1
 53 426 l 1,9,-1
 158 426 l 1,10,-1
 158 395 l 1,11,12
 184 418 184 418 200 425 c 128,-1,13
 216 432 216 432 244 432 c 0,14,15
 313 432 313 432 364.5 367 c 128,-1,0
 416 302 416 302 416 213 c 128,-1,1
313 213 m 128,-1,17
 313 264 313 264 287.5 299 c 128,-1,18
 262 334 262 334 225 334 c 0,19,20
 180 334 180 334 158 279 c 1,21,-1
 158 279 l 1,22,-1
 158 279 l 1,23,-1
 158 279 l 1,24,-1
 158 278 l 1,25,-1
 158 278 l 1,26,-1
 158 277 l 1,27,-1
 158 277 l 1,28,-1
 158 276 l 1,29,-1
 158 275 l 1,30,-1
 158 274 l 1,31,-1
 158 273 l 1,32,-1
 158 272 l 1,33,-1
 158 271 l 1,34,-1
 158 270 l 1,35,-1
 158 269 l 1,36,-1
 158 268 l 1,37,-1
 158 267 l 1,38,-1
 158 266 l 1,39,-1
 158 265 l 1,40,-1
 158 264 l 1,41,-1
 158 263 l 1,42,-1
 158 262 l 1,43,-1
 158 261 l 1,44,-1
 158 260 l 1,45,-1
 158 259 l 1,46,-1
 158 258 l 1,47,-1
 158 257 l 1,48,-1
 158 256 l 1,49,-1
 158 255 l 1,50,-1
 158 254 l 1,51,-1
 158 253 l 1,52,-1
 158 252 l 1,53,-1
 158 251 l 1,54,-1
 158 250 l 1,55,-1
 158 248 l 1,56,-1
 158 247 l 1,57,-1
 158 246 l 1,58,-1
 158 245 l 1,59,-1
 158 244 l 1,60,-1
 158 243 l 1,61,-1
 158 241 l 1,62,-1
 158 240 l 1,63,-1
 158 239 l 1,64,-1
 158 238 l 1,65,-1
 158 236 l 1,66,-1
 158 235 l 1,67,-1
 158 234 l 1,68,-1
 158 233 l 1,69,-1
 158 231 l 1,70,-1
 158 230 l 1,71,-1
 158 229 l 1,72,-1
 158 227 l 1,73,-1
 158 226 l 1,74,-1
 158 225 l 1,75,-1
 158 223 l 1,76,-1
 158 222 l 1,77,-1
 158 220 l 1,78,-1
 158 219 l 1,79,-1
 158 218 l 1,80,-1
 158 216 l 1,81,-1
 158 215 l 1,82,-1
 158 213 l 1,83,-1
 158 212 l 1,84,-1
 158 210 l 1,85,-1
 158 209 l 1,86,-1
 158 207 l 1,87,-1
 158 206 l 1,88,-1
 158 204 l 1,89,-1
 158 203 l 1,90,-1
 158 201 l 1,91,-1
 158 200 l 1,92,-1
 158 198 l 1,93,-1
 158 196 l 1,94,-1
 158 195 l 1,95,-1
 158 193 l 1,96,-1
 158 192 l 1,97,-1
 158 190 l 1,98,-1
 158 188 l 1,99,-1
 158 187 l 1,100,-1
 158 185 l 1,101,-1
 158 184 l 1,102,-1
 158 182 l 1,103,-1
 158 180 l 1,104,-1
 158 179 l 1,105,-1
 158 177 l 1,106,-1
 158 175 l 1,107,-1
 158 173 l 1,108,-1
 158 172 l 1,109,-1
 158 170 l 1,110,-1
 158 168 l 1,111,-1
 158 167 l 1,112,-1
 158 165 l 1,113,-1
 158 163 l 1,114,-1
 158 161 l 1,115,-1
 158 160 l 1,116,-1
 158 158 l 1,117,-1
 158 156 l 1,118,-1
 158 154 l 1,119,-1
 158 152 l 1,120,-1
 158 151 l 1,121,-1
 158 149 l 1,122,-1
 158 139 l 1,123,124
 176 112 176 112 189.5 102 c 128,-1,125
 203 92 203 92 225 92 c 0,126,127
 262 92 262 92 287.5 127 c 128,-1,16
 313 162 313 162 313 213 c 128,-1,17
EndSplineSet
EndChar
StartChar: q
Encoding: 113 113 74
Width: 450
Flags: W
LayerCount: 2
Fore
SplineSet
397 -137 m 1,0,-1
 297 -176 l 1,1,-1
 297 29 l 1,2,3
 268 4 268 4 251.5 -3 c 128,-1,4
 235 -10 235 -10 207 -10 c 0,5,6
 138 -10 138 -10 86.5 56 c 128,-1,7
 35 122 35 122 35 211 c 128,-1,8
 35 300 35 300 86.5 366 c 128,-1,9
 138 432 138 432 207 432 c 0,10,11
 235 432 235 432 252.5 425 c 128,-1,12
 270 418 270 418 297 395 c 1,13,-1
 297 426 l 1,14,-1
 397 426 l 1,15,-1
 397 -137 l 1,0,-1
297 137 m 1,16,-1
 297 287 l 1,17,18
 270 332 270 332 225 332 c 0,19,20
 188 332 188 332 162.5 297.5 c 128,-1,21
 137 263 137 263 137 211 c 0,22,23
 137 160 137 160 162.5 125 c 128,-1,24
 188 90 188 90 225 90 c 0,25,26
 270 90 270 90 297 137 c 1,16,-1
EndSplineSet
EndChar
StartChar: r
Encoding: 114 114 75
Width: 571
VWidth: 1754
Flags: W
LayerCount: 2
Fore
SplineSet
551 699 m 1,0,-1
 494 526 l 1,1,2
 456 569 456 569 398 569 c 0,3,4
 347 569 347 569 307 529 c 1,5,6
 269 500 269 500 270 428 c 2,7,-1
 270 0 l 1,8,-1
 90 0 l 1,9,-1
 90 730 l 1,10,-1
 270 730 l 1,11,-1
 270 677 l 1,12,13
 308 715 308 715 337 727.5 c 128,-1,14
 366 740 366 740 410 740 c 0,15,16
 494 740 494 740 551 699 c 1,0,-1
EndSplineSet
EndChar
StartChar: s
Encoding: 115 115 76
Width: 680
VWidth: 1754
Flags: W
LayerCount: 2
Fore
SplineSet
650 204 m 0,0,1
 650 101 650 101 572 43.5 c 128,-1,2
 494 -14 494 -14 352 -14 c 0,3,4
 172 -14 172 -14 40 53 c 1,5,-1
 105 211 l 1,6,7
 110 209 110 209 158.5 194.5 c 128,-1,8
 207 180 207 180 257.5 169 c 128,-1,9
 308 158 308 158 345 158 c 0,10,11
 473 158 473 158 474 211 c 0,12,13
 474 244 474 244 454 255.5 c 128,-1,14
 434 267 434 267 349 291 c 1,15,16
 202 329 202 329 138 379 c 0,17,18
 57 442 57 442 58 540 c 0,19,20
 58 634 58 634 135 688.5 c 128,-1,21
 212 743 212 743 342 743 c 0,22,23
 491 743 491 743 626 670 c 1,24,-1
 559 512 l 1,25,26
 458 572 458 572 345 572 c 0,27,28
 235 572 235 572 236 522 c 0,29,30
 236 496 236 496 260.5 482 c 128,-1,31
 285 468 285 468 362 452 c 0,32,33
 513 423 513 423 581.5 363 c 128,-1,34
 650 303 650 303 650 204 c 0,0,1
EndSplineSet
EndChar
StartChar: t
Encoding: 116 116 77
Width: 483
VWidth: 1754
Flags: W
LayerCount: 2
Fore
SplineSet
473 200 m 1,0,-1
 445 21 l 1,1,2
 373 -17 373 -17 312 -17 c 0,3,4
 226 -17 226 -17 178 43 c 128,-1,5
 130 103 130 103 130 207 c 2,6,-1
 130 558 l 1,7,-1
 10 558 l 1,8,-1
 10 726 l 1,9,-1
 130 726 l 1,10,-1
 130 951 l 1,11,-1
 312 1017 l 1,12,-1
 312 726 l 1,13,-1
 462 726 l 1,14,-1
 462 558 l 1,15,-1
 312 558 l 1,16,-1
 312 271 l 2,17,18
 312 161 312 161 392 161 c 0,19,20
 428 161 428 161 473 200 c 1,0,-1
EndSplineSet
EndChar
StartChar: u
Encoding: 117 117 78
Width: 458
Flags: W
LayerCount: 2
Fore
SplineSet
406 0 m 1,0,-1
 307 0 l 1,1,-1
 307 33 l 1,2,3
 267 7 267 7 250.5 0.5 c 128,-1,4
 234 -6 234 -6 203 -6 c 0,5,6
 134 -6 134 -6 90.5 32.5 c 128,-1,7
 47 71 47 71 47 131 c 2,8,-1
 47 424 l 1,9,-1
 152 424 l 1,10,-1
 152 170 l 2,11,12
 152 136 152 136 172 114 c 128,-1,13
 192 92 192 92 227 92 c 0,14,15
 259 92 259 92 283 115 c 128,-1,16
 307 138 307 138 307 168 c 2,17,-1
 307 424 l 1,18,-1
 406 424 l 1,19,-1
 406 0 l 1,0,-1
EndSplineSet
EndChar
StartChar: v
Encoding: 118 118 79
Width: 749
VWidth: 1754
Flags: W
LayerCount: 2
Fore
SplineSet
729 730 m 1,0,-1
 468 0 l 1,1,-1
 280 0 l 1,2,-1
 20 730 l 1,3,-1
 199 730 l 1,4,-1
 374 235 l 1,5,-1
 551 730 l 1,6,-1
 729 730 l 1,0,-1
EndSplineSet
EndChar
StartChar: w
Encoding: 119 119 80
Width: 994
VWidth: 1754
Flags: W
LayerCount: 2
Fore
SplineSet
974 730 m 1,0,-1
 772 0 l 1,1,-1
 599 0 l 1,2,-1
 497 442 l 1,3,-1
 395 0 l 1,4,-1
 223 0 l 1,5,-1
 20 730 l 1,6,-1
 196 730 l 1,7,-1
 307 315 l 1,8,-1
 403 730 l 1,9,-1
 592 730 l 1,10,-1
 689 319 l 1,11,-1
 799 730 l 1,12,-1
 974 730 l 1,0,-1
EndSplineSet
EndChar
StartChar: x
Encoding: 120 120 81
Width: 425
Flags: W
LayerCount: 2
Fore
SplineSet
426 0 m 1,0,-1
 309 0 l 1,1,-1
 213 147 l 1,2,-1
 119 0 l 1,3,-1
 0 0 l 1,4,-1
 156 240 l 1,5,-1
 35 426 l 1,6,-1
 154 426 l 1,7,-1
 213 332 l 1,8,-1
 274 426 l 1,9,-1
 391 426 l 1,10,-1
 272 240 l 1,11,-1
 426 0 l 1,0,-1
EndSplineSet
EndChar
StartChar: y
Encoding: 121 121 82
Width: 809
VWidth: 1754
Flags: W
LayerCount: 2
Fore
SplineSet
789 730 m 1,0,-1
 410 -277 l 1,1,-1
 227 -277 l 1,2,-1
 333 0 l 1,3,-1
 20 730 l 1,4,-1
 203 730 l 1,5,-1
 417 228 l 1,6,-1
 605 730 l 1,7,-1
 789 730 l 1,0,-1
EndSplineSet
EndChar
StartChar: z
Encoding: 122 122 83
Width: 695
VWidth: 1754
Flags: W
LayerCount: 2
Fore
SplineSet
665 0 m 1,0,-1
 30 0 l 1,1,-1
 30 158 l 1,2,-1
 398 555 l 1,3,-1
 49 555 l 1,4,-1
 49 730 l 1,5,-1
 665 730 l 1,6,-1
 665 586 l 1,7,-1
 276 171 l 1,8,-1
 665 171 l 1,9,-1
 665 0 l 1,0,-1
EndSplineSet
EndChar
StartChar: cent
Encoding: 162 162 84
Width: 899
VWidth: 1754
Flags: W
LayerCount: 2
Fore
SplineSet
829 288 m 1,0,1
 745 148 745 148 571 116 c 1,2,-1
 571 -60 l 1,3,-1
 391 -60 l 1,4,-1
 391 120 l 1,5,6
 254 149 254 149 177 258 c 128,-1,7
 100 367 100 367 100 529 c 0,8,9
 100 685 100 685 180.5 794.5 c 128,-1,10
 261 904 261 904 391 937 c 1,11,-1
 391 1084 l 1,12,-1
 571 1084 l 1,13,-1
 571 937 l 1,14,15
 741 911 741 911 829 769 c 1,16,-1
 689 699 l 1,17,18
 648 749 648 749 607 772.5 c 128,-1,19
 566 796 566 796 494 796 c 0,20,21
 390 796 390 796 333 713 c 128,-1,22
 276 630 276 630 276 529 c 0,23,24
 276 418 276 418 335 335 c 128,-1,25
 394 252 394 252 487 252 c 0,26,27
 537 252 537 252 574.5 267.5 c 128,-1,28
 612 283 612 283 629 297.5 c 128,-1,29
 646 312 646 312 689 355 c 1,30,-1
 829 288 l 1,0,1
EndSplineSet
EndChar
StartChar: dieresis
Encoding: 168 168 125
Width: 370
Flags: W
LayerCount: 2
Fore
SplineSet
160 543 m 0,0,1
 160 521 160 521 144 505 c 128,-1,2
 128 489 128 489 106 489 c 0,3,4
 83 489 83 489 68 504.5 c 128,-1,5
 53 520 53 520 53 543 c 0,6,7
 53 565 53 565 68 579.5 c 128,-1,8
 83 594 83 594 106 594 c 0,9,10
 128 594 128 594 144 579 c 128,-1,11
 160 564 160 564 160 543 c 0,0,1
317 543 m 0,12,13
 317 521 317 521 301 505 c 128,-1,14
 285 489 285 489 263 489 c 0,15,16
 240 489 240 489 225 504.5 c 128,-1,17
 210 520 210 520 210 543 c 0,18,19
 210 565 210 565 225 579.5 c 128,-1,20
 240 594 240 594 263 594 c 0,21,22
 285 594 285 594 301 579 c 128,-1,23
 317 564 317 564 317 543 c 0,12,13
EndSplineSet
EndChar
StartChar: uni00B2
Encoding: 178 178 87
AltUni2: 002072.ffffffff.0
Width: 368
Flags: W
LayerCount: 2
Fore
SplineSet
341 196 m 1,0,-1
 27 196 l 1,1,2
 27 261 27 261 58 315 c 1,3,4
 108 398 108 398 212 427 c 1,5,6
 245 435 245 435 258.5 446.5 c 128,-1,7
 272 458 272 458 272 476 c 0,8,9
 272 521 272 521 195 521 c 0,10,11
 121 521 121 521 75 479 c 1,12,-1
 27 532 l 1,13,14
 96 592 96 592 191 592 c 0,15,16
 260 592 260 592 300.5 560.5 c 128,-1,17
 341 529 341 529 341 476 c 0,18,19
 341 425 341 425 302 391 c 1,20,21
 280 375 280 375 244 364 c 0,22,23
 204 352 204 352 187.5 344.5 c 128,-1,24
 171 337 171 337 154 321 c 1,25,26
 130 301 130 301 112 265 c 1,27,-1
 341 265 l 1,28,-1
 341 196 l 1,0,-1
EndSplineSet
EndChar
StartChar: uni00B3
Encoding: 179 179 88
AltUni2: 002073.ffffffff.0
Width: 368
Flags: W
LayerCount: 2
Fore
SplineSet
341 314 m 0,0,1
 341 259 341 259 296.5 222.5 c 128,-1,2
 252 186 252 186 187 186 c 0,3,4
 108 186 108 186 57 233 c 0,5,6
 43 245 43 245 27 265 c 1,7,-1
 83 307 l 1,8,9
 122 257 122 257 191 257 c 0,10,11
 227 257 227 257 249.5 272 c 128,-1,12
 272 287 272 287 272 311 c 0,13,14
 272 326 272 326 263 340.5 c 128,-1,15
 254 355 254 355 241 362 c 0,16,17
 225 370 225 370 203 370 c 2,18,-1
 184 370 l 1,19,-1
 184 440 l 1,20,-1
 200 440 l 2,21,22
 223 440 223 440 237.5 450.5 c 128,-1,23
 252 461 252 461 252 478 c 256,24,25
 252 495 252 495 233 507 c 128,-1,26
 214 519 214 519 184 519 c 0,27,28
 134 519 134 519 98 481 c 1,29,-1
 46 529 l 1,30,31
 104 589 104 589 188 589 c 0,32,33
 247 589 247 589 285 558 c 128,-1,34
 323 527 323 527 323 479 c 0,35,36
 323 445 323 445 292 405 c 1,37,38
 320 380 320 380 330.5 360.5 c 128,-1,39
 341 341 341 341 341 314 c 0,0,1
EndSplineSet
EndChar
StartChar: acute
Encoding: 180 180 126
Width: 236
Flags: W
LayerCount: 2
Fore
SplineSet
129 584 m 1,0,-1
 236 584 l 1,1,-1
 148 480 l 1,2,-1
 75 480 l 1,3,-1
 129 584 l 1,0,-1
EndSplineSet
EndChar
StartChar: uni00B9
Encoding: 185 185 86
AltUni2: 002071.ffffffff.0
Width: 206
Flags: W
LayerCount: 2
Fore
SplineSet
155 196 m 1,0,-1
 89 196 l 1,1,-1
 89 487 l 1,2,-1
 39 487 l 1,3,-1
 38 543 l 1,4,5
 79 552 79 552 100 585 c 1,6,-1
 155 585 l 1,7,-1
 155 196 l 1,0,-1
EndSplineSet
EndChar
StartChar: Ccedilla
Encoding: 199 199 132
Width: 587
Flags: W
LayerCount: 2
Fore
SplineSet
264 -7 m 1,0,1
 178 5 178 5 124 73 c 1,2,3
 57 155 57 155 57 293 c 0,4,5
 57 432 57 432 123.5 513 c 128,-1,6
 190 594 190 594 305 594 c 0,7,8
 376 594 376 594 436.5 560 c 128,-1,9
 497 526 497 526 530 465 c 1,10,-1
 438 416 l 1,11,12
 419 445 419 445 397 459 c 1,13,14
 359 489 359 489 305 489 c 0,15,16
 255 489 255 489 222 458 c 128,-1,17
 189 427 189 427 176.5 385.5 c 128,-1,18
 164 344 164 344 164 295 c 0,19,20
 164 200 164 200 201.5 147 c 128,-1,21
 239 94 239 94 305 94 c 0,22,23
 344 94 344 94 371.5 109.5 c 128,-1,24
 399 125 399 125 438 168 c 1,25,-1
 530 119 l 1,26,27
 498 58 498 58 437.5 24 c 128,-1,28
 377 -10 377 -10 305 -10 c 2,29,-1
 303 -10 l 1,30,-1
 299 -23 l 1,31,32
 351 -5 351 -5 369 -39 c 0,33,34
 389 -76 389 -76 358 -110 c 0,35,36
 344 -126 344 -126 303 -126 c 0,37,38
 256 -125 256 -125 210 -101 c 1,39,-1
 224 -68 l 1,40,41
 253 -86 253 -86 286 -85 c 0,42,43
 309 -84 309 -84 315 -74 c 1,44,45
 321 -66 321 -66 313 -56 c 0,46,47
 303 -43 303 -43 279 -61 c 1,48,-1
 254 -43 l 1,49,-1
 264 -7 l 1,0,1
EndSplineSet
EndChar
StartChar: ccedilla
Encoding: 231 231 157
Width: 411
Flags: W
LayerCount: 2
Fore
SplineSet
186 -4 m 1,0,1
 132 10 132 10 93 53 c 0,2,3
 35 116 35 116 35 213 c 128,-1,4
 35 310 35 310 92.5 373 c 128,-1,5
 150 436 150 436 238 436 c 0,6,7
 331 436 331 436 395 356 c 1,8,-1
 330 270 l 1,9,10
 317 301 317 301 292.5 318.5 c 128,-1,11
 268 336 268 336 240 336 c 0,12,13
 194 336 194 336 164.5 301.5 c 128,-1,14
 135 267 135 267 135 213 c 128,-1,15
 135 159 135 159 164.5 124.5 c 128,-1,16
 194 90 194 90 240 90 c 0,17,18
 289 90 289 90 324 143 c 1,19,-1
 395 70 l 1,20,21
 331 -10 331 -10 238 -10 c 2,22,-1
 224 -10 l 1,23,-1
 221 -23 l 1,24,25
 273 -5 273 -5 291 -39 c 0,26,27
 310 -76 310 -76 279 -110 c 0,28,29
 265 -126 265 -126 224 -126 c 0,30,31
 177 -125 177 -125 132 -101 c 1,32,-1
 146 -68 l 1,33,34
 175 -86 175 -86 208 -85 c 0,35,36
 231 -84 231 -84 237 -74 c 0,37,38
 242 -66 242 -66 234 -56 c 0,39,40
 224 -43 224 -43 200 -61 c 1,41,-1
 175 -43 l 1,42,-1
 186 -4 l 1,0,1
EndSplineSet
EndChar
StartChar: dotlessi
Encoding: 305 305 178
Width: 212
Flags: W
LayerCount: 2
Fore
SplineSet
160 426 m 1,0,-1
 160 0 l 1,1,-1
 55 0 l 1,2,-1
 55 426 l 1,3,-1
 160 426 l 1,0,-1
EndSplineSet
EndChar
StartChar: circumflex
Encoding: 710 710 179
Width: 367
Flags: W
LayerCount: 2
Fore
SplineSet
238 584 m 1,0,-1
 312 480 l 1,1,-1
 239 480 l 1,2,-1
 184 522 l 1,3,-1
 128 480 l 1,4,-1
 55 480 l 1,5,-1
 129 584 l 1,6,-1
 238 584 l 1,0,-1
EndSplineSet
EndChar
StartChar: fraction
Encoding: 8260 8260 105
Width: 409
Flags: W
LayerCount: 2
Fore
SplineSet
409 585 m 1,0,-1
 69 0 l 1,1,-1
 0 0 l 1,2,-1
 340 585 l 1,3,-1
 409 585 l 1,0,-1
EndSplineSet
EndChar
StartChar: uni2070
Encoding: 8304 8304 85
Width: 428
Flags: W
LayerCount: 2
Fore
SplineSet
377 389 m 0,0,1
 377 350 377 350 368 315 c 128,-1,2
 359 280 359 280 340.5 250.5 c 128,-1,3
 322 221 322 221 289.5 203.5 c 128,-1,4
 257 186 257 186 215 186 c 0,5,6
 134 186 134 186 92.5 244.5 c 128,-1,7
 51 303 51 303 51 388 c 0,8,9
 51 472 51 472 92.5 530.5 c 128,-1,10
 134 589 134 589 215 589 c 128,-1,11
 296 589 296 589 336.5 530 c 128,-1,12
 377 471 377 471 377 389 c 0,0,1
308 389 m 2,13,-1
 308 388 l 2,14,15
 308 449 308 449 283.5 484 c 128,-1,16
 259 519 259 519 215 519 c 0,17,18
 168 519 168 519 144 479.5 c 128,-1,19
 120 440 120 440 120 389 c 0,20,21
 120 325 120 325 145 290 c 128,-1,22
 170 255 170 255 215 255 c 0,23,24
 258 255 258 255 283 292 c 128,-1,25
 308 329 308 329 308 389 c 2,13,-1
EndSplineSet
EndChar
StartChar: uni2074
Encoding: 8308 8308 89
Width: 418
Flags: W
LayerCount: 2
Fore
SplineSet
380 275 m 1,0,-1
 323 275 l 1,1,-1
 323 196 l 1,2,-1
 255 196 l 1,3,-1
 255 275 l 1,4,-1
 15 275 l 1,5,-1
 15 338 l 1,6,-1
 255 585 l 1,7,-1
 323 585 l 1,8,-1
 323 338 l 1,9,-1
 380 338 l 1,10,-1
 380 275 l 1,0,-1
255 338 m 1,11,-1
 255 493 l 1,12,-1
 104 338 l 1,13,-1
 255 338 l 1,11,-1
EndSplineSet
EndChar
StartChar: uni2075
Encoding: 8309 8309 90
Width: 368
Flags: W
LayerCount: 2
Fore
SplineSet
341 327 m 0,0,1
 341 265 341 265 294.5 225.5 c 128,-1,2
 248 186 248 186 177 186 c 0,3,4
 98 186 98 186 27 229 c 1,5,-1
 64 288 l 1,6,7
 115 257 115 257 177 257 c 0,8,9
 221 257 221 257 246.5 275.5 c 128,-1,10
 272 294 272 294 272 327 c 0,11,12
 272 361 272 361 247 380 c 0,13,14
 227 396 227 396 184 396 c 0,15,16
 148 396 148 396 109 381 c 1,17,-1
 39 399 l 1,18,-1
 52 582 l 1,19,-1
 311 582 l 1,20,-1
 310 513 l 1,21,-1
 117 513 l 1,22,-1
 113 457 l 1,23,24
 160 467 160 467 188 467 c 0,25,26
 254 467 254 467 297.5 427 c 128,-1,27
 341 387 341 387 341 327 c 0,0,1
EndSplineSet
EndChar
StartChar: uni2076
Encoding: 8310 8310 91
Width: 712
Flags: W
LayerCount: 2
Fore
SplineSet
625 524 m 0,0,1
 625 435 625 435 554 377 c 128,-1,2
 483 319 483 319 370 319 c 0,3,4
 248 319 248 319 166 391 c 0,5,6
 87 460 87 460 87 594 c 0,7,8
 87 698 87 698 132.5 786.5 c 128,-1,9
 178 875 178 875 262 934 c 0,10,11
 370 1009 370 1009 531 1009 c 1,12,-1
 531 889 l 1,13,-1
 521 889 l 2,14,15
 418 889 418 889 353 850 c 0,16,17
 271 802 271 802 226 704 c 1,18,19
 301 725 301 725 375 725 c 0,20,21
 483 725 483 725 554 668 c 128,-1,22
 625 611 625 611 625 524 c 0,0,1
505 522 m 256,23,24
 505 560 505 560 466.5 583 c 128,-1,25
 428 606 428 606 365 606 c 0,26,27
 303 606 303 606 265.5 583 c 128,-1,28
 228 560 228 560 228 524 c 0,29,30
 228 485 228 485 265.5 462.5 c 128,-1,31
 303 440 303 440 365 440 c 0,32,33
 428 440 428 440 466.5 462 c 128,-1,34
 505 484 505 484 505 522 c 256,23,24
EndSplineSet
EndChar
StartChar: uni2077
Encoding: 8311 8311 92
Width: 367
Flags: W
LayerCount: 2
Fore
SplineSet
330 515 m 1,0,1
 296 483 296 483 288 469 c 1,2,3
 250 418 250 418 222 337 c 1,4,5
 202 275 202 275 200 196 c 1,6,-1
 131 196 l 1,7,8
 133 273 133 273 148 335 c 1,9,10
 168 409 168 409 204 468 c 0,11,12
 212 481 212 481 236 517 c 1,13,-1
 16 517 l 1,14,-1
 15 585 l 1,15,-1
 330 585 l 1,16,-1
 330 515 l 1,0,1
EndSplineSet
EndChar
StartChar: uni2078
Encoding: 8312 8312 93
Width: 368
Flags: W
LayerCount: 2
Fore
SplineSet
341 317 m 0,0,1
 341 251 341 251 295.5 218.5 c 128,-1,2
 250 186 250 186 184 186 c 0,3,4
 112 186 112 186 69.5 221.5 c 128,-1,5
 27 257 27 257 27 317 c 0,6,7
 27 372 27 372 70 411 c 1,8,9
 52 433 52 433 45.5 447.5 c 128,-1,10
 39 462 39 462 39 482 c 0,11,12
 39 530 39 530 79 559.5 c 128,-1,13
 119 589 119 589 184 589 c 256,14,15
 249 589 249 589 289 559.5 c 128,-1,16
 329 530 329 530 329 482 c 0,17,18
 329 463 329 463 322.5 448 c 128,-1,19
 316 433 316 433 299 411 c 1,20,21
 341 373 341 373 341 317 c 0,0,1
259 483 m 0,22,23
 259 500 259 500 239.5 509.5 c 128,-1,24
 220 519 220 519 184 519 c 128,-1,25
 148 519 148 519 128.5 509.5 c 128,-1,26
 109 500 109 500 109 483 c 0,27,28
 109 447 109 447 184 447 c 256,29,30
 259 447 259 447 259 483 c 0,22,23
272 317 m 0,31,32
 272 345 272 345 249 361 c 128,-1,33
 226 377 226 377 184 377 c 128,-1,34
 142 377 142 377 119 361 c 128,-1,35
 96 345 96 345 96 317 c 0,36,37
 96 285 96 285 125 268 c 0,38,39
 143 257 143 257 184 257 c 0,40,41
 232 257 232 257 251 273 c 0,42,43
 272 292 272 292 272 317 c 0,31,32
EndSplineSet
EndChar
StartChar: uni2079
Encoding: 8313 8313 94
Width: 368
Flags: W
LayerCount: 2
Fore
SplineSet
341 429 m 0,0,1
 341 367 341 367 314.5 315 c 128,-1,2
 288 263 288 263 238 229 c 1,3,4
 178 186 178 186 83 186 c 1,5,-1
 83 257 l 1,6,-1
 90 257 l 2,7,8
 146 257 146 257 186 279 c 0,9,10
 212 294 212 294 229 313.5 c 128,-1,11
 246 333 246 333 260 365 c 1,12,13
 218 351 218 351 173 351 c 0,14,15
 110 351 110 351 68.5 385 c 128,-1,16
 27 419 27 419 27 470 c 0,17,18
 27 522 27 522 68.5 555.5 c 128,-1,19
 110 589 110 589 176 589 c 0,20,21
 246 589 246 589 294 547 c 0,22,23
 341 507 341 507 341 429 c 0,0,1
259 470 m 128,-1,25
 259 491 259 491 236.5 505 c 128,-1,26
 214 519 214 519 178 519 c 0,27,28
 141 519 141 519 118.5 506 c 128,-1,29
 96 493 96 493 96 470 c 0,30,31
 96 448 96 448 119 434.5 c 128,-1,32
 142 421 142 421 180 421 c 0,33,34
 214 421 214 421 236.5 435 c 128,-1,24
 259 449 259 449 259 470 c 128,-1,25
EndSplineSet
EndChar
StartChar: uni2080
Encoding: 8320 8320 95
Width: 733
Flags: W
LayerCount: 2
Fore
SplineSet
646 331 m 0,0,1
 646 264 646 264 630.5 204 c 128,-1,2
 615 144 615 144 583.5 93.5 c 128,-1,3
 552 43 552 43 496 13 c 128,-1,4
 440 -17 440 -17 368 -17 c 0,5,6
 229 -17 229 -17 158 83 c 128,-1,7
 87 183 87 183 87 329 c 0,8,9
 87 473 87 473 158.5 573 c 128,-1,10
 230 673 230 673 368.5 673 c 128,-1,11
 507 673 507 673 576.5 572 c 128,-1,12
 646 471 646 471 646 331 c 0,0,1
528 331 m 2,13,-1
 528 329 l 2,14,15
 528 433 528 433 486 493 c 128,-1,16
 444 553 444 553 368 553 c 0,17,18
 287 553 287 553 246.5 485.5 c 128,-1,19
 206 418 206 418 206 331 c 0,20,21
 206 221 206 221 248.5 161 c 128,-1,22
 291 101 291 101 368 101 c 0,23,24
 442 101 442 101 485 164.5 c 128,-1,25
 528 228 528 228 528 331 c 2,13,-1
EndSplineSet
EndChar
StartChar: uni2081
Encoding: 8321 8321 96
Width: 206
Flags: W
LayerCount: 2
Fore
SplineSet
155 0 m 1,0,-1
 89 0 l 1,1,-1
 89 291 l 1,2,-1
 39 291 l 1,3,-1
 38 347 l 1,4,5
 79 356 79 356 100 389 c 1,6,-1
 155 389 l 1,7,-1
 155 0 l 1,0,-1
EndSplineSet
EndChar
StartChar: uni2082
Encoding: 8322 8322 97
Width: 368
Flags: W
LayerCount: 2
Fore
SplineSet
341 0 m 1,0,-1
 27 0 l 1,1,2
 27 65 27 65 58 119 c 1,3,4
 108 202 108 202 212 231 c 1,5,6
 245 239 245 239 258.5 250.5 c 128,-1,7
 272 262 272 262 272 280 c 0,8,9
 272 325 272 325 195 325 c 0,10,11
 121 325 121 325 75 283 c 1,12,-1
 27 336 l 1,13,14
 96 396 96 396 191 396 c 0,15,16
 260 396 260 396 300.5 364.5 c 128,-1,17
 341 333 341 333 341 280 c 0,18,19
 341 229 341 229 302 195 c 1,20,21
 280 179 280 179 244 168 c 0,22,23
 204 156 204 156 187.5 148.5 c 128,-1,24
 171 141 171 141 154 125 c 1,25,26
 130 105 130 105 112 69 c 1,27,-1
 341 69 l 1,28,-1
 341 0 l 1,0,-1
EndSplineSet
EndChar
StartChar: uni2083
Encoding: 8323 8323 98
Width: 368
Flags: W
LayerCount: 2
Fore
SplineSet
341 118 m 0,0,1
 341 63 341 63 296.5 26.5 c 128,-1,2
 252 -10 252 -10 187 -10 c 0,3,4
 108 -10 108 -10 57 37 c 0,5,6
 43 49 43 49 27 69 c 1,7,-1
 83 111 l 1,8,9
 122 61 122 61 191 61 c 0,10,11
 227 61 227 61 249.5 76 c 128,-1,12
 272 91 272 91 272 115 c 0,13,14
 272 130 272 130 263 144.5 c 128,-1,15
 254 159 254 159 241 166 c 0,16,17
 225 174 225 174 203 174 c 2,18,-1
 184 174 l 1,19,-1
 184 244 l 1,20,-1
 200 244 l 2,21,22
 223 244 223 244 237.5 254.5 c 128,-1,23
 252 265 252 265 252 282 c 256,24,25
 252 299 252 299 233 311 c 128,-1,26
 214 323 214 323 184 323 c 0,27,28
 134 323 134 323 98 285 c 1,29,-1
 46 333 l 1,30,31
 104 393 104 393 188 393 c 0,32,33
 247 393 247 393 285 362 c 128,-1,34
 323 331 323 331 323 283 c 0,35,36
 323 249 323 249 292 209 c 1,37,38
 320 184 320 184 330.5 164.5 c 128,-1,39
 341 145 341 145 341 118 c 0,0,1
EndSplineSet
EndChar
StartChar: uni2084
Encoding: 8324 8324 99
Width: 418
Flags: W
LayerCount: 2
Fore
SplineSet
380 79 m 1,0,-1
 323 79 l 1,1,-1
 323 0 l 1,2,-1
 255 0 l 1,3,-1
 255 79 l 1,4,-1
 15 79 l 1,5,-1
 15 142 l 1,6,-1
 255 389 l 1,7,-1
 323 389 l 1,8,-1
 323 142 l 1,9,-1
 380 142 l 1,10,-1
 380 79 l 1,0,-1
255 142 m 1,11,-1
 255 297 l 1,12,-1
 104 142 l 1,13,-1
 255 142 l 1,11,-1
EndSplineSet
EndChar
StartChar: uni2085
Encoding: 8325 8325 100
Width: 368
Flags: W
LayerCount: 2
Fore
SplineSet
341 131 m 0,0,1
 341 69 341 69 294.5 29.5 c 128,-1,2
 248 -10 248 -10 177 -10 c 0,3,4
 98 -10 98 -10 27 33 c 1,5,-1
 64 92 l 1,6,7
 115 61 115 61 177 61 c 0,8,9
 221 61 221 61 246.5 79.5 c 128,-1,10
 272 98 272 98 272 131 c 0,11,12
 272 165 272 165 247 184 c 0,13,14
 227 200 227 200 184 200 c 0,15,16
 148 200 148 200 109 185 c 1,17,-1
 39 203 l 1,18,-1
 52 386 l 1,19,-1
 311 386 l 1,20,-1
 310 317 l 1,21,-1
 117 317 l 1,22,-1
 113 261 l 1,23,24
 160 271 160 271 188 271 c 0,25,26
 254 271 254 271 297.5 231 c 128,-1,27
 341 191 341 191 341 131 c 0,0,1
EndSplineSet
EndChar
StartChar: uni2086
Encoding: 8326 8326 101
Width: 416
Flags: W
LayerCount: 2
Fore
SplineSet
365 110 m 0,0,1
 365 58 365 58 323.5 24 c 128,-1,2
 282 -10 282 -10 216 -10 c 0,3,4
 145 -10 145 -10 97 32 c 0,5,6
 51 72 51 72 51 151 c 0,7,8
 51 212 51 212 77.5 263.5 c 128,-1,9
 104 315 104 315 153 349 c 0,10,11
 216 393 216 393 310 393 c 1,12,-1
 310 323 l 1,13,-1
 304 323 l 2,14,15
 244 323 244 323 206 300 c 0,16,17
 158 272 158 272 132 215 c 1,18,19
 176 227 176 227 219 227 c 0,20,21
 282 227 282 227 323.5 194 c 128,-1,22
 365 161 365 161 365 110 c 0,0,1
295 109 m 256,23,24
 295 131 295 131 272.5 144.5 c 128,-1,25
 250 158 250 158 213 158 c 0,26,27
 177 158 177 158 155 144.5 c 128,-1,28
 133 131 133 131 133 110 c 0,29,30
 133 87 133 87 155 74 c 128,-1,31
 177 61 177 61 213 61 c 0,32,33
 250 61 250 61 272.5 74 c 128,-1,34
 295 87 295 87 295 109 c 256,23,24
EndSplineSet
EndChar
StartChar: uni2087
Encoding: 8327 8327 102
Width: 628
Flags: W
LayerCount: 2
Fore
SplineSet
565 546 m 1,0,1
 507 491 507 491 493 468 c 1,2,3
 428 381 428 381 380 242 c 1,4,5
 346 136 346 136 343 0 c 1,6,-1
 224 0 l 1,7,8
 227 132 227 132 254 238 c 1,9,10
 288 365 288 365 349 466 c 0,11,12
 363 488 363 488 404 550 c 1,13,-1
 27 550 l 1,14,-1
 26 666 l 1,15,-1
 565 666 l 1,16,-1
 565 546 l 1,0,1
EndSplineSet
EndChar
StartChar: uni2088
Encoding: 8328 8328 103
Width: 368
Flags: W
LayerCount: 2
Fore
SplineSet
341 121 m 0,0,1
 341 55 341 55 295.5 22.5 c 128,-1,2
 250 -10 250 -10 184 -10 c 0,3,4
 112 -10 112 -10 69.5 25.5 c 128,-1,5
 27 61 27 61 27 121 c 0,6,7
 27 176 27 176 70 215 c 1,8,9
 52 237 52 237 45.5 251.5 c 128,-1,10
 39 266 39 266 39 286 c 0,11,12
 39 334 39 334 79 363.5 c 128,-1,13
 119 393 119 393 184 393 c 256,14,15
 249 393 249 393 289 363.5 c 128,-1,16
 329 334 329 334 329 286 c 0,17,18
 329 267 329 267 322.5 252 c 128,-1,19
 316 237 316 237 299 215 c 1,20,21
 341 177 341 177 341 121 c 0,0,1
259 287 m 0,22,23
 259 304 259 304 239.5 313.5 c 128,-1,24
 220 323 220 323 184 323 c 128,-1,25
 148 323 148 323 128.5 313.5 c 128,-1,26
 109 304 109 304 109 287 c 0,27,28
 109 251 109 251 184 251 c 256,29,30
 259 251 259 251 259 287 c 0,22,23
272 121 m 0,31,32
 272 149 272 149 249 165 c 128,-1,33
 226 181 226 181 184 181 c 128,-1,34
 142 181 142 181 119 165 c 128,-1,35
 96 149 96 149 96 121 c 0,36,37
 96 89 96 89 125 72 c 0,38,39
 143 61 143 61 184 61 c 0,40,41
 232 61 232 61 251 77 c 0,42,43
 272 96 272 96 272 121 c 0,31,32
EndSplineSet
EndChar
StartChar: uni2089
Encoding: 8329 8329 104
Width: 368
Flags: W
LayerCount: 2
Fore
SplineSet
341 233 m 0,0,1
 341 171 341 171 314.5 119 c 128,-1,2
 288 67 288 67 238 33 c 1,3,4
 178 -10 178 -10 83 -10 c 1,5,-1
 83 61 l 1,6,-1
 90 61 l 2,7,8
 146 61 146 61 186 83 c 0,9,10
 212 98 212 98 229 117.5 c 128,-1,11
 246 137 246 137 260 169 c 1,12,13
 218 155 218 155 173 155 c 0,14,15
 110 155 110 155 68.5 189 c 128,-1,16
 27 223 27 223 27 274 c 0,17,18
 27 326 27 326 68.5 359.5 c 128,-1,19
 110 393 110 393 176 393 c 0,20,21
 246 393 246 393 294 351 c 0,22,23
 341 311 341 311 341 233 c 0,0,1
259 274 m 128,-1,25
 259 295 259 295 236.5 309 c 128,-1,26
 214 323 214 323 178 323 c 0,27,28
 141 323 141 323 118.5 310 c 128,-1,29
 96 297 96 297 96 274 c 0,30,31
 96 252 96 252 119 238.5 c 128,-1,32
 142 225 142 225 180 225 c 0,33,34
 214 225 214 225 236.5 239 c 128,-1,24
 259 253 259 253 259 274 c 128,-1,25
EndSplineSet
EndChar
StartChar: .notdef
Encoding: 65536 -1 0
Width: 770
VWidth: 1754
Flags: W
LayerCount: 2
Fore
SplineSet
680 1002 m 1,0,-1
 680 0 l 1,1,-1
 91 0 l 1,2,-1
 91 1002 l 1,3,-1
 680 1002 l 1,0,-1
178 915 m 1,4,-1
 178 87 l 1,5,-1
 593 87 l 1,6,-1
 593 915 l 1,7,-1
 178 915 l 1,4,-1
EndSplineSet
EndChar
